%TF.GenerationSoftware,KiCad,Pcbnew,7.0.10*%
%TF.CreationDate,2024-02-12T04:38:07-05:00*%
%TF.ProjectId,SanBan,53616e42-616e-42e6-9b69-6361645f7063,rev?*%
%TF.SameCoordinates,Original*%
%TF.FileFunction,Legend,Top*%
%TF.FilePolarity,Positive*%
%FSLAX46Y46*%
G04 Gerber Fmt 4.6, Leading zero omitted, Abs format (unit mm)*
G04 Created by KiCad (PCBNEW 7.0.10) date 2024-02-12 04:38:07*
%MOMM*%
%LPD*%
G01*
G04 APERTURE LIST*
%ADD10C,0.150000*%
%ADD11C,0.200000*%
%ADD12C,0.125000*%
%ADD13C,0.120000*%
G04 APERTURE END LIST*
D10*
X178519160Y-96109200D02*
X178662017Y-96156819D01*
X178662017Y-96156819D02*
X178900112Y-96156819D01*
X178900112Y-96156819D02*
X178995350Y-96109200D01*
X178995350Y-96109200D02*
X179042969Y-96061580D01*
X179042969Y-96061580D02*
X179090588Y-95966342D01*
X179090588Y-95966342D02*
X179090588Y-95871104D01*
X179090588Y-95871104D02*
X179042969Y-95775866D01*
X179042969Y-95775866D02*
X178995350Y-95728247D01*
X178995350Y-95728247D02*
X178900112Y-95680628D01*
X178900112Y-95680628D02*
X178709636Y-95633009D01*
X178709636Y-95633009D02*
X178614398Y-95585390D01*
X178614398Y-95585390D02*
X178566779Y-95537771D01*
X178566779Y-95537771D02*
X178519160Y-95442533D01*
X178519160Y-95442533D02*
X178519160Y-95347295D01*
X178519160Y-95347295D02*
X178566779Y-95252057D01*
X178566779Y-95252057D02*
X178614398Y-95204438D01*
X178614398Y-95204438D02*
X178709636Y-95156819D01*
X178709636Y-95156819D02*
X178947731Y-95156819D01*
X178947731Y-95156819D02*
X179090588Y-95204438D01*
X179471541Y-96109200D02*
X179614398Y-96156819D01*
X179614398Y-96156819D02*
X179852493Y-96156819D01*
X179852493Y-96156819D02*
X179947731Y-96109200D01*
X179947731Y-96109200D02*
X179995350Y-96061580D01*
X179995350Y-96061580D02*
X180042969Y-95966342D01*
X180042969Y-95966342D02*
X180042969Y-95871104D01*
X180042969Y-95871104D02*
X179995350Y-95775866D01*
X179995350Y-95775866D02*
X179947731Y-95728247D01*
X179947731Y-95728247D02*
X179852493Y-95680628D01*
X179852493Y-95680628D02*
X179662017Y-95633009D01*
X179662017Y-95633009D02*
X179566779Y-95585390D01*
X179566779Y-95585390D02*
X179519160Y-95537771D01*
X179519160Y-95537771D02*
X179471541Y-95442533D01*
X179471541Y-95442533D02*
X179471541Y-95347295D01*
X179471541Y-95347295D02*
X179519160Y-95252057D01*
X179519160Y-95252057D02*
X179566779Y-95204438D01*
X179566779Y-95204438D02*
X179662017Y-95156819D01*
X179662017Y-95156819D02*
X179900112Y-95156819D01*
X179900112Y-95156819D02*
X180042969Y-95204438D01*
X181185827Y-95252057D02*
X181233446Y-95204438D01*
X181233446Y-95204438D02*
X181328684Y-95156819D01*
X181328684Y-95156819D02*
X181566779Y-95156819D01*
X181566779Y-95156819D02*
X181662017Y-95204438D01*
X181662017Y-95204438D02*
X181709636Y-95252057D01*
X181709636Y-95252057D02*
X181757255Y-95347295D01*
X181757255Y-95347295D02*
X181757255Y-95442533D01*
X181757255Y-95442533D02*
X181709636Y-95585390D01*
X181709636Y-95585390D02*
X181138208Y-96156819D01*
X181138208Y-96156819D02*
X181757255Y-96156819D01*
X182614398Y-95490152D02*
X182614398Y-96156819D01*
X182376303Y-95109200D02*
X182138208Y-95823485D01*
X182138208Y-95823485D02*
X182757255Y-95823485D01*
X183185827Y-95156819D02*
X183090589Y-95347295D01*
X134793445Y-64279866D02*
X135555350Y-64279866D01*
X135126779Y-64660819D02*
X135222017Y-63898914D01*
X137466065Y-64613200D02*
X137555350Y-64660819D01*
X137555350Y-64660819D02*
X137745827Y-64660819D01*
X137745827Y-64660819D02*
X137847017Y-64613200D01*
X137847017Y-64613200D02*
X137906541Y-64517961D01*
X137906541Y-64517961D02*
X137912493Y-64470342D01*
X137912493Y-64470342D02*
X137876779Y-64375104D01*
X137876779Y-64375104D02*
X137787493Y-64327485D01*
X137787493Y-64327485D02*
X137644636Y-64327485D01*
X137644636Y-64327485D02*
X137555350Y-64279866D01*
X137555350Y-64279866D02*
X137519636Y-64184628D01*
X137519636Y-64184628D02*
X137525589Y-64137009D01*
X137525589Y-64137009D02*
X137585112Y-64041771D01*
X137585112Y-64041771D02*
X137686303Y-63994152D01*
X137686303Y-63994152D02*
X137829160Y-63994152D01*
X137829160Y-63994152D02*
X137918446Y-64041771D01*
X139888684Y-64279866D02*
X140650589Y-64279866D01*
X125141445Y-64279866D02*
X125903350Y-64279866D01*
X125474779Y-64660819D02*
X125570017Y-63898914D01*
X127814065Y-64613200D02*
X127903350Y-64660819D01*
X127903350Y-64660819D02*
X128093827Y-64660819D01*
X128093827Y-64660819D02*
X128195017Y-64613200D01*
X128195017Y-64613200D02*
X128254541Y-64517961D01*
X128254541Y-64517961D02*
X128260493Y-64470342D01*
X128260493Y-64470342D02*
X128224779Y-64375104D01*
X128224779Y-64375104D02*
X128135493Y-64327485D01*
X128135493Y-64327485D02*
X127992636Y-64327485D01*
X127992636Y-64327485D02*
X127903350Y-64279866D01*
X127903350Y-64279866D02*
X127867636Y-64184628D01*
X127867636Y-64184628D02*
X127873589Y-64137009D01*
X127873589Y-64137009D02*
X127933112Y-64041771D01*
X127933112Y-64041771D02*
X128034303Y-63994152D01*
X128034303Y-63994152D02*
X128177160Y-63994152D01*
X128177160Y-63994152D02*
X128266446Y-64041771D01*
X130236684Y-64279866D02*
X130998589Y-64279866D01*
X115489445Y-64279866D02*
X116251350Y-64279866D01*
X115822779Y-64660819D02*
X115918017Y-63898914D01*
X118162065Y-64613200D02*
X118251350Y-64660819D01*
X118251350Y-64660819D02*
X118441827Y-64660819D01*
X118441827Y-64660819D02*
X118543017Y-64613200D01*
X118543017Y-64613200D02*
X118602541Y-64517961D01*
X118602541Y-64517961D02*
X118608493Y-64470342D01*
X118608493Y-64470342D02*
X118572779Y-64375104D01*
X118572779Y-64375104D02*
X118483493Y-64327485D01*
X118483493Y-64327485D02*
X118340636Y-64327485D01*
X118340636Y-64327485D02*
X118251350Y-64279866D01*
X118251350Y-64279866D02*
X118215636Y-64184628D01*
X118215636Y-64184628D02*
X118221589Y-64137009D01*
X118221589Y-64137009D02*
X118281112Y-64041771D01*
X118281112Y-64041771D02*
X118382303Y-63994152D01*
X118382303Y-63994152D02*
X118525160Y-63994152D01*
X118525160Y-63994152D02*
X118614446Y-64041771D01*
X120584684Y-64279866D02*
X121346589Y-64279866D01*
G36*
X173842801Y-93529055D02*
G01*
X173842801Y-94295001D01*
X173109339Y-94295001D01*
X173109339Y-93529055D01*
X173842801Y-93529055D01*
G37*
X164387000Y-92096000D02*
X163752000Y-90953000D01*
X165149000Y-90445000D01*
X164387000Y-92096000D01*
G36*
X164387000Y-92096000D02*
G01*
X163752000Y-90953000D01*
X165149000Y-90445000D01*
X164387000Y-92096000D01*
G37*
X163498000Y-94001000D02*
X163244000Y-94509000D01*
X162990000Y-94001000D01*
X163244000Y-93874000D01*
X163498000Y-94001000D01*
G36*
X163498000Y-94001000D02*
G01*
X163244000Y-94509000D01*
X162990000Y-94001000D01*
X163244000Y-93874000D01*
X163498000Y-94001000D01*
G37*
X162736000Y-90953000D02*
X162101000Y-92096000D01*
X161339000Y-90445000D01*
X162736000Y-90953000D01*
G36*
X162736000Y-90953000D02*
G01*
X162101000Y-92096000D01*
X161339000Y-90445000D01*
X162736000Y-90953000D01*
G37*
X165149000Y-94255000D02*
X163244000Y-93620000D01*
X161339000Y-94255000D01*
X163244000Y-90445000D01*
X165149000Y-94255000D01*
G36*
X165149000Y-94255000D02*
G01*
X163244000Y-93620000D01*
X161339000Y-94255000D01*
X163244000Y-90445000D01*
X165149000Y-94255000D01*
G37*
G36*
X167896951Y-90410562D02*
G01*
X167400161Y-92164714D01*
X167944578Y-94295001D01*
X167047718Y-94295001D01*
X166697474Y-92629753D01*
X166697474Y-94295001D01*
X165829923Y-94295001D01*
X165829923Y-90410562D01*
X166697474Y-90410562D01*
X166697474Y-91919372D01*
X167082889Y-90410562D01*
X167896951Y-90410562D01*
G37*
G36*
X168951347Y-90410562D02*
G01*
X168951347Y-94295001D01*
X168083796Y-94295001D01*
X168083796Y-90410562D01*
X168951347Y-90410562D01*
G37*
G36*
X171038891Y-90410562D02*
G01*
X171038891Y-91176508D01*
X170523782Y-91176508D01*
X170523782Y-94295001D01*
X169656232Y-94295001D01*
X169656232Y-91176508D01*
X169143322Y-91176508D01*
X169143322Y-90410562D01*
X171038891Y-90410562D01*
G37*
G36*
X171225736Y-90410562D02*
G01*
X172672875Y-90410562D01*
X172672875Y-91176508D01*
X172093287Y-91176508D01*
X172093287Y-91887743D01*
X172635506Y-91887743D01*
X172635506Y-92653689D01*
X172093287Y-92653689D01*
X172093287Y-93529055D01*
X172730028Y-93529055D01*
X172730028Y-94295001D01*
X171225736Y-94295001D01*
X171225736Y-90410562D01*
G37*
D11*
X161454673Y-89931219D02*
X161454673Y-88931219D01*
X161454673Y-88931219D02*
X161835625Y-88931219D01*
X161835625Y-88931219D02*
X161930863Y-88978838D01*
X161930863Y-88978838D02*
X161978482Y-89026457D01*
X161978482Y-89026457D02*
X162026101Y-89121695D01*
X162026101Y-89121695D02*
X162026101Y-89264552D01*
X162026101Y-89264552D02*
X161978482Y-89359790D01*
X161978482Y-89359790D02*
X161930863Y-89407409D01*
X161930863Y-89407409D02*
X161835625Y-89455028D01*
X161835625Y-89455028D02*
X161454673Y-89455028D01*
X163026101Y-89931219D02*
X162692768Y-89455028D01*
X162454673Y-89931219D02*
X162454673Y-88931219D01*
X162454673Y-88931219D02*
X162835625Y-88931219D01*
X162835625Y-88931219D02*
X162930863Y-88978838D01*
X162930863Y-88978838D02*
X162978482Y-89026457D01*
X162978482Y-89026457D02*
X163026101Y-89121695D01*
X163026101Y-89121695D02*
X163026101Y-89264552D01*
X163026101Y-89264552D02*
X162978482Y-89359790D01*
X162978482Y-89359790D02*
X162930863Y-89407409D01*
X162930863Y-89407409D02*
X162835625Y-89455028D01*
X162835625Y-89455028D02*
X162454673Y-89455028D01*
X163645149Y-88931219D02*
X163835625Y-88931219D01*
X163835625Y-88931219D02*
X163930863Y-88978838D01*
X163930863Y-88978838D02*
X164026101Y-89074076D01*
X164026101Y-89074076D02*
X164073720Y-89264552D01*
X164073720Y-89264552D02*
X164073720Y-89597885D01*
X164073720Y-89597885D02*
X164026101Y-89788361D01*
X164026101Y-89788361D02*
X163930863Y-89883600D01*
X163930863Y-89883600D02*
X163835625Y-89931219D01*
X163835625Y-89931219D02*
X163645149Y-89931219D01*
X163645149Y-89931219D02*
X163549911Y-89883600D01*
X163549911Y-89883600D02*
X163454673Y-89788361D01*
X163454673Y-89788361D02*
X163407054Y-89597885D01*
X163407054Y-89597885D02*
X163407054Y-89264552D01*
X163407054Y-89264552D02*
X163454673Y-89074076D01*
X163454673Y-89074076D02*
X163549911Y-88978838D01*
X163549911Y-88978838D02*
X163645149Y-88931219D01*
X164788006Y-88931219D02*
X164788006Y-89645504D01*
X164788006Y-89645504D02*
X164740387Y-89788361D01*
X164740387Y-89788361D02*
X164645149Y-89883600D01*
X164645149Y-89883600D02*
X164502292Y-89931219D01*
X164502292Y-89931219D02*
X164407054Y-89931219D01*
X165264197Y-89407409D02*
X165597530Y-89407409D01*
X165740387Y-89931219D02*
X165264197Y-89931219D01*
X165264197Y-89931219D02*
X165264197Y-88931219D01*
X165264197Y-88931219D02*
X165740387Y-88931219D01*
X166740387Y-89835980D02*
X166692768Y-89883600D01*
X166692768Y-89883600D02*
X166549911Y-89931219D01*
X166549911Y-89931219D02*
X166454673Y-89931219D01*
X166454673Y-89931219D02*
X166311816Y-89883600D01*
X166311816Y-89883600D02*
X166216578Y-89788361D01*
X166216578Y-89788361D02*
X166168959Y-89693123D01*
X166168959Y-89693123D02*
X166121340Y-89502647D01*
X166121340Y-89502647D02*
X166121340Y-89359790D01*
X166121340Y-89359790D02*
X166168959Y-89169314D01*
X166168959Y-89169314D02*
X166216578Y-89074076D01*
X166216578Y-89074076D02*
X166311816Y-88978838D01*
X166311816Y-88978838D02*
X166454673Y-88931219D01*
X166454673Y-88931219D02*
X166549911Y-88931219D01*
X166549911Y-88931219D02*
X166692768Y-88978838D01*
X166692768Y-88978838D02*
X166740387Y-89026457D01*
X167026102Y-88931219D02*
X167597530Y-88931219D01*
X167311816Y-89931219D02*
X167311816Y-88931219D01*
D12*
X161611712Y-96110500D02*
X161754569Y-96158119D01*
X161754569Y-96158119D02*
X161992664Y-96158119D01*
X161992664Y-96158119D02*
X162087902Y-96110500D01*
X162087902Y-96110500D02*
X162135521Y-96062880D01*
X162135521Y-96062880D02*
X162183140Y-95967642D01*
X162183140Y-95967642D02*
X162183140Y-95872404D01*
X162183140Y-95872404D02*
X162135521Y-95777166D01*
X162135521Y-95777166D02*
X162087902Y-95729547D01*
X162087902Y-95729547D02*
X161992664Y-95681928D01*
X161992664Y-95681928D02*
X161802188Y-95634309D01*
X161802188Y-95634309D02*
X161706950Y-95586690D01*
X161706950Y-95586690D02*
X161659331Y-95539071D01*
X161659331Y-95539071D02*
X161611712Y-95443833D01*
X161611712Y-95443833D02*
X161611712Y-95348595D01*
X161611712Y-95348595D02*
X161659331Y-95253357D01*
X161659331Y-95253357D02*
X161706950Y-95205738D01*
X161706950Y-95205738D02*
X161802188Y-95158119D01*
X161802188Y-95158119D02*
X162040283Y-95158119D01*
X162040283Y-95158119D02*
X162183140Y-95205738D01*
X162564093Y-95872404D02*
X163040283Y-95872404D01*
X162468855Y-96158119D02*
X162802188Y-95158119D01*
X162802188Y-95158119D02*
X163135521Y-96158119D01*
X163468855Y-96158119D02*
X163468855Y-95158119D01*
X163468855Y-95158119D02*
X164040283Y-96158119D01*
X164040283Y-96158119D02*
X164040283Y-95158119D01*
X164849807Y-95634309D02*
X164992664Y-95681928D01*
X164992664Y-95681928D02*
X165040283Y-95729547D01*
X165040283Y-95729547D02*
X165087902Y-95824785D01*
X165087902Y-95824785D02*
X165087902Y-95967642D01*
X165087902Y-95967642D02*
X165040283Y-96062880D01*
X165040283Y-96062880D02*
X164992664Y-96110500D01*
X164992664Y-96110500D02*
X164897426Y-96158119D01*
X164897426Y-96158119D02*
X164516474Y-96158119D01*
X164516474Y-96158119D02*
X164516474Y-95158119D01*
X164516474Y-95158119D02*
X164849807Y-95158119D01*
X164849807Y-95158119D02*
X164945045Y-95205738D01*
X164945045Y-95205738D02*
X164992664Y-95253357D01*
X164992664Y-95253357D02*
X165040283Y-95348595D01*
X165040283Y-95348595D02*
X165040283Y-95443833D01*
X165040283Y-95443833D02*
X164992664Y-95539071D01*
X164992664Y-95539071D02*
X164945045Y-95586690D01*
X164945045Y-95586690D02*
X164849807Y-95634309D01*
X164849807Y-95634309D02*
X164516474Y-95634309D01*
X165468855Y-95872404D02*
X165945045Y-95872404D01*
X165373617Y-96158119D02*
X165706950Y-95158119D01*
X165706950Y-95158119D02*
X166040283Y-96158119D01*
X166373617Y-96158119D02*
X166373617Y-95158119D01*
X166373617Y-95158119D02*
X166945045Y-96158119D01*
X166945045Y-96158119D02*
X166945045Y-95158119D01*
X168754569Y-96158119D02*
X168421236Y-95681928D01*
X168183141Y-96158119D02*
X168183141Y-95158119D01*
X168183141Y-95158119D02*
X168564093Y-95158119D01*
X168564093Y-95158119D02*
X168659331Y-95205738D01*
X168659331Y-95205738D02*
X168706950Y-95253357D01*
X168706950Y-95253357D02*
X168754569Y-95348595D01*
X168754569Y-95348595D02*
X168754569Y-95491452D01*
X168754569Y-95491452D02*
X168706950Y-95586690D01*
X168706950Y-95586690D02*
X168659331Y-95634309D01*
X168659331Y-95634309D02*
X168564093Y-95681928D01*
X168564093Y-95681928D02*
X168183141Y-95681928D01*
X169183141Y-95634309D02*
X169516474Y-95634309D01*
X169659331Y-96158119D02*
X169183141Y-96158119D01*
X169183141Y-96158119D02*
X169183141Y-95158119D01*
X169183141Y-95158119D02*
X169659331Y-95158119D01*
X169945046Y-95158119D02*
X170278379Y-96158119D01*
X170278379Y-96158119D02*
X170611712Y-95158119D01*
X172230760Y-96158119D02*
X171659332Y-96158119D01*
X171945046Y-96158119D02*
X171945046Y-95158119D01*
X171945046Y-95158119D02*
X171849808Y-95300976D01*
X171849808Y-95300976D02*
X171754570Y-95396214D01*
X171754570Y-95396214D02*
X171659332Y-95443833D01*
X172659332Y-96062880D02*
X172706951Y-96110500D01*
X172706951Y-96110500D02*
X172659332Y-96158119D01*
X172659332Y-96158119D02*
X172611713Y-96110500D01*
X172611713Y-96110500D02*
X172659332Y-96062880D01*
X172659332Y-96062880D02*
X172659332Y-96158119D01*
X173325998Y-95158119D02*
X173421236Y-95158119D01*
X173421236Y-95158119D02*
X173516474Y-95205738D01*
X173516474Y-95205738D02*
X173564093Y-95253357D01*
X173564093Y-95253357D02*
X173611712Y-95348595D01*
X173611712Y-95348595D02*
X173659331Y-95539071D01*
X173659331Y-95539071D02*
X173659331Y-95777166D01*
X173659331Y-95777166D02*
X173611712Y-95967642D01*
X173611712Y-95967642D02*
X173564093Y-96062880D01*
X173564093Y-96062880D02*
X173516474Y-96110500D01*
X173516474Y-96110500D02*
X173421236Y-96158119D01*
X173421236Y-96158119D02*
X173325998Y-96158119D01*
X173325998Y-96158119D02*
X173230760Y-96110500D01*
X173230760Y-96110500D02*
X173183141Y-96062880D01*
X173183141Y-96062880D02*
X173135522Y-95967642D01*
X173135522Y-95967642D02*
X173087903Y-95777166D01*
X173087903Y-95777166D02*
X173087903Y-95539071D01*
X173087903Y-95539071D02*
X173135522Y-95348595D01*
X173135522Y-95348595D02*
X173183141Y-95253357D01*
X173183141Y-95253357D02*
X173230760Y-95205738D01*
X173230760Y-95205738D02*
X173325998Y-95158119D01*
D11*
X165090006Y-68325409D02*
X164756673Y-68325409D01*
X164756673Y-68849219D02*
X164756673Y-67849219D01*
X164756673Y-67849219D02*
X165232863Y-67849219D01*
X166090006Y-68849219D02*
X165613816Y-68849219D01*
X165613816Y-68849219D02*
X165613816Y-67849219D01*
X166423340Y-68849219D02*
X166423340Y-67849219D01*
X167423339Y-67896838D02*
X167328101Y-67849219D01*
X167328101Y-67849219D02*
X167185244Y-67849219D01*
X167185244Y-67849219D02*
X167042387Y-67896838D01*
X167042387Y-67896838D02*
X166947149Y-67992076D01*
X166947149Y-67992076D02*
X166899530Y-68087314D01*
X166899530Y-68087314D02*
X166851911Y-68277790D01*
X166851911Y-68277790D02*
X166851911Y-68420647D01*
X166851911Y-68420647D02*
X166899530Y-68611123D01*
X166899530Y-68611123D02*
X166947149Y-68706361D01*
X166947149Y-68706361D02*
X167042387Y-68801600D01*
X167042387Y-68801600D02*
X167185244Y-68849219D01*
X167185244Y-68849219D02*
X167280482Y-68849219D01*
X167280482Y-68849219D02*
X167423339Y-68801600D01*
X167423339Y-68801600D02*
X167470958Y-68753980D01*
X167470958Y-68753980D02*
X167470958Y-68420647D01*
X167470958Y-68420647D02*
X167280482Y-68420647D01*
X167899530Y-68849219D02*
X167899530Y-67849219D01*
X167899530Y-68325409D02*
X168470958Y-68325409D01*
X168470958Y-68849219D02*
X168470958Y-67849219D01*
X168804292Y-67849219D02*
X169375720Y-67849219D01*
X169090006Y-68849219D02*
X169090006Y-67849219D01*
X171042387Y-68753980D02*
X170994768Y-68801600D01*
X170994768Y-68801600D02*
X170851911Y-68849219D01*
X170851911Y-68849219D02*
X170756673Y-68849219D01*
X170756673Y-68849219D02*
X170613816Y-68801600D01*
X170613816Y-68801600D02*
X170518578Y-68706361D01*
X170518578Y-68706361D02*
X170470959Y-68611123D01*
X170470959Y-68611123D02*
X170423340Y-68420647D01*
X170423340Y-68420647D02*
X170423340Y-68277790D01*
X170423340Y-68277790D02*
X170470959Y-68087314D01*
X170470959Y-68087314D02*
X170518578Y-67992076D01*
X170518578Y-67992076D02*
X170613816Y-67896838D01*
X170613816Y-67896838D02*
X170756673Y-67849219D01*
X170756673Y-67849219D02*
X170851911Y-67849219D01*
X170851911Y-67849219D02*
X170994768Y-67896838D01*
X170994768Y-67896838D02*
X171042387Y-67944457D01*
X171661435Y-67849219D02*
X171851911Y-67849219D01*
X171851911Y-67849219D02*
X171947149Y-67896838D01*
X171947149Y-67896838D02*
X172042387Y-67992076D01*
X172042387Y-67992076D02*
X172090006Y-68182552D01*
X172090006Y-68182552D02*
X172090006Y-68515885D01*
X172090006Y-68515885D02*
X172042387Y-68706361D01*
X172042387Y-68706361D02*
X171947149Y-68801600D01*
X171947149Y-68801600D02*
X171851911Y-68849219D01*
X171851911Y-68849219D02*
X171661435Y-68849219D01*
X171661435Y-68849219D02*
X171566197Y-68801600D01*
X171566197Y-68801600D02*
X171470959Y-68706361D01*
X171470959Y-68706361D02*
X171423340Y-68515885D01*
X171423340Y-68515885D02*
X171423340Y-68182552D01*
X171423340Y-68182552D02*
X171470959Y-67992076D01*
X171470959Y-67992076D02*
X171566197Y-67896838D01*
X171566197Y-67896838D02*
X171661435Y-67849219D01*
X172518578Y-68849219D02*
X172518578Y-67849219D01*
X172518578Y-67849219D02*
X173090006Y-68849219D01*
X173090006Y-68849219D02*
X173090006Y-67849219D01*
X173423340Y-67849219D02*
X173994768Y-67849219D01*
X173709054Y-68849219D02*
X173709054Y-67849219D01*
X174899530Y-68849219D02*
X174566197Y-68373028D01*
X174328102Y-68849219D02*
X174328102Y-67849219D01*
X174328102Y-67849219D02*
X174709054Y-67849219D01*
X174709054Y-67849219D02*
X174804292Y-67896838D01*
X174804292Y-67896838D02*
X174851911Y-67944457D01*
X174851911Y-67944457D02*
X174899530Y-68039695D01*
X174899530Y-68039695D02*
X174899530Y-68182552D01*
X174899530Y-68182552D02*
X174851911Y-68277790D01*
X174851911Y-68277790D02*
X174804292Y-68325409D01*
X174804292Y-68325409D02*
X174709054Y-68373028D01*
X174709054Y-68373028D02*
X174328102Y-68373028D01*
X175518578Y-67849219D02*
X175709054Y-67849219D01*
X175709054Y-67849219D02*
X175804292Y-67896838D01*
X175804292Y-67896838D02*
X175899530Y-67992076D01*
X175899530Y-67992076D02*
X175947149Y-68182552D01*
X175947149Y-68182552D02*
X175947149Y-68515885D01*
X175947149Y-68515885D02*
X175899530Y-68706361D01*
X175899530Y-68706361D02*
X175804292Y-68801600D01*
X175804292Y-68801600D02*
X175709054Y-68849219D01*
X175709054Y-68849219D02*
X175518578Y-68849219D01*
X175518578Y-68849219D02*
X175423340Y-68801600D01*
X175423340Y-68801600D02*
X175328102Y-68706361D01*
X175328102Y-68706361D02*
X175280483Y-68515885D01*
X175280483Y-68515885D02*
X175280483Y-68182552D01*
X175280483Y-68182552D02*
X175328102Y-67992076D01*
X175328102Y-67992076D02*
X175423340Y-67896838D01*
X175423340Y-67896838D02*
X175518578Y-67849219D01*
X176851911Y-68849219D02*
X176375721Y-68849219D01*
X176375721Y-68849219D02*
X176375721Y-67849219D01*
X177661435Y-68849219D02*
X177185245Y-68849219D01*
X177185245Y-68849219D02*
X177185245Y-67849219D01*
X177994769Y-68325409D02*
X178328102Y-68325409D01*
X178470959Y-68849219D02*
X177994769Y-68849219D01*
X177994769Y-68849219D02*
X177994769Y-67849219D01*
X177994769Y-67849219D02*
X178470959Y-67849219D01*
X179470959Y-68849219D02*
X179137626Y-68373028D01*
X178899531Y-68849219D02*
X178899531Y-67849219D01*
X178899531Y-67849219D02*
X179280483Y-67849219D01*
X179280483Y-67849219D02*
X179375721Y-67896838D01*
X179375721Y-67896838D02*
X179423340Y-67944457D01*
X179423340Y-67944457D02*
X179470959Y-68039695D01*
X179470959Y-68039695D02*
X179470959Y-68182552D01*
X179470959Y-68182552D02*
X179423340Y-68277790D01*
X179423340Y-68277790D02*
X179375721Y-68325409D01*
X179375721Y-68325409D02*
X179280483Y-68373028D01*
X179280483Y-68373028D02*
X178899531Y-68373028D01*
X128006054Y-82025504D02*
X128482244Y-82025504D01*
X127910816Y-82311219D02*
X128244149Y-81311219D01*
X128244149Y-81311219D02*
X128577482Y-82311219D01*
X129482244Y-82311219D02*
X129148911Y-81835028D01*
X128910816Y-82311219D02*
X128910816Y-81311219D01*
X128910816Y-81311219D02*
X129291768Y-81311219D01*
X129291768Y-81311219D02*
X129387006Y-81358838D01*
X129387006Y-81358838D02*
X129434625Y-81406457D01*
X129434625Y-81406457D02*
X129482244Y-81501695D01*
X129482244Y-81501695D02*
X129482244Y-81644552D01*
X129482244Y-81644552D02*
X129434625Y-81739790D01*
X129434625Y-81739790D02*
X129387006Y-81787409D01*
X129387006Y-81787409D02*
X129291768Y-81835028D01*
X129291768Y-81835028D02*
X128910816Y-81835028D01*
X129910816Y-82311219D02*
X129910816Y-81311219D01*
X129910816Y-81311219D02*
X130148911Y-81311219D01*
X130148911Y-81311219D02*
X130291768Y-81358838D01*
X130291768Y-81358838D02*
X130387006Y-81454076D01*
X130387006Y-81454076D02*
X130434625Y-81549314D01*
X130434625Y-81549314D02*
X130482244Y-81739790D01*
X130482244Y-81739790D02*
X130482244Y-81882647D01*
X130482244Y-81882647D02*
X130434625Y-82073123D01*
X130434625Y-82073123D02*
X130387006Y-82168361D01*
X130387006Y-82168361D02*
X130291768Y-82263600D01*
X130291768Y-82263600D02*
X130148911Y-82311219D01*
X130148911Y-82311219D02*
X129910816Y-82311219D01*
X130910816Y-81311219D02*
X130910816Y-82120742D01*
X130910816Y-82120742D02*
X130958435Y-82215980D01*
X130958435Y-82215980D02*
X131006054Y-82263600D01*
X131006054Y-82263600D02*
X131101292Y-82311219D01*
X131101292Y-82311219D02*
X131291768Y-82311219D01*
X131291768Y-82311219D02*
X131387006Y-82263600D01*
X131387006Y-82263600D02*
X131434625Y-82215980D01*
X131434625Y-82215980D02*
X131482244Y-82120742D01*
X131482244Y-82120742D02*
X131482244Y-81311219D01*
X131958435Y-82311219D02*
X131958435Y-81311219D01*
X132434625Y-82311219D02*
X132434625Y-81311219D01*
X132434625Y-81311219D02*
X133006053Y-82311219D01*
X133006053Y-82311219D02*
X133006053Y-81311219D01*
X133672720Y-81311219D02*
X133863196Y-81311219D01*
X133863196Y-81311219D02*
X133958434Y-81358838D01*
X133958434Y-81358838D02*
X134053672Y-81454076D01*
X134053672Y-81454076D02*
X134101291Y-81644552D01*
X134101291Y-81644552D02*
X134101291Y-81977885D01*
X134101291Y-81977885D02*
X134053672Y-82168361D01*
X134053672Y-82168361D02*
X133958434Y-82263600D01*
X133958434Y-82263600D02*
X133863196Y-82311219D01*
X133863196Y-82311219D02*
X133672720Y-82311219D01*
X133672720Y-82311219D02*
X133577482Y-82263600D01*
X133577482Y-82263600D02*
X133482244Y-82168361D01*
X133482244Y-82168361D02*
X133434625Y-81977885D01*
X133434625Y-81977885D02*
X133434625Y-81644552D01*
X133434625Y-81644552D02*
X133482244Y-81454076D01*
X133482244Y-81454076D02*
X133577482Y-81358838D01*
X133577482Y-81358838D02*
X133672720Y-81311219D01*
X142103006Y-98932409D02*
X142245863Y-98980028D01*
X142245863Y-98980028D02*
X142293482Y-99027647D01*
X142293482Y-99027647D02*
X142341101Y-99122885D01*
X142341101Y-99122885D02*
X142341101Y-99265742D01*
X142341101Y-99265742D02*
X142293482Y-99360980D01*
X142293482Y-99360980D02*
X142245863Y-99408600D01*
X142245863Y-99408600D02*
X142150625Y-99456219D01*
X142150625Y-99456219D02*
X141769673Y-99456219D01*
X141769673Y-99456219D02*
X141769673Y-98456219D01*
X141769673Y-98456219D02*
X142103006Y-98456219D01*
X142103006Y-98456219D02*
X142198244Y-98503838D01*
X142198244Y-98503838D02*
X142245863Y-98551457D01*
X142245863Y-98551457D02*
X142293482Y-98646695D01*
X142293482Y-98646695D02*
X142293482Y-98741933D01*
X142293482Y-98741933D02*
X142245863Y-98837171D01*
X142245863Y-98837171D02*
X142198244Y-98884790D01*
X142198244Y-98884790D02*
X142103006Y-98932409D01*
X142103006Y-98932409D02*
X141769673Y-98932409D01*
X143245863Y-99456219D02*
X142769673Y-99456219D01*
X142769673Y-99456219D02*
X142769673Y-98456219D01*
X143579197Y-98456219D02*
X143579197Y-99265742D01*
X143579197Y-99265742D02*
X143626816Y-99360980D01*
X143626816Y-99360980D02*
X143674435Y-99408600D01*
X143674435Y-99408600D02*
X143769673Y-99456219D01*
X143769673Y-99456219D02*
X143960149Y-99456219D01*
X143960149Y-99456219D02*
X144055387Y-99408600D01*
X144055387Y-99408600D02*
X144103006Y-99360980D01*
X144103006Y-99360980D02*
X144150625Y-99265742D01*
X144150625Y-99265742D02*
X144150625Y-98456219D01*
X144626816Y-98932409D02*
X144960149Y-98932409D01*
X145103006Y-99456219D02*
X144626816Y-99456219D01*
X144626816Y-99456219D02*
X144626816Y-98456219D01*
X144626816Y-98456219D02*
X145103006Y-98456219D01*
X145388721Y-98456219D02*
X145960149Y-98456219D01*
X145674435Y-99456219D02*
X145674435Y-98456219D01*
X146483959Y-98456219D02*
X146674435Y-98456219D01*
X146674435Y-98456219D02*
X146769673Y-98503838D01*
X146769673Y-98503838D02*
X146864911Y-98599076D01*
X146864911Y-98599076D02*
X146912530Y-98789552D01*
X146912530Y-98789552D02*
X146912530Y-99122885D01*
X146912530Y-99122885D02*
X146864911Y-99313361D01*
X146864911Y-99313361D02*
X146769673Y-99408600D01*
X146769673Y-99408600D02*
X146674435Y-99456219D01*
X146674435Y-99456219D02*
X146483959Y-99456219D01*
X146483959Y-99456219D02*
X146388721Y-99408600D01*
X146388721Y-99408600D02*
X146293483Y-99313361D01*
X146293483Y-99313361D02*
X146245864Y-99122885D01*
X146245864Y-99122885D02*
X146245864Y-98789552D01*
X146245864Y-98789552D02*
X146293483Y-98599076D01*
X146293483Y-98599076D02*
X146388721Y-98503838D01*
X146388721Y-98503838D02*
X146483959Y-98456219D01*
X147531578Y-98456219D02*
X147722054Y-98456219D01*
X147722054Y-98456219D02*
X147817292Y-98503838D01*
X147817292Y-98503838D02*
X147912530Y-98599076D01*
X147912530Y-98599076D02*
X147960149Y-98789552D01*
X147960149Y-98789552D02*
X147960149Y-99122885D01*
X147960149Y-99122885D02*
X147912530Y-99313361D01*
X147912530Y-99313361D02*
X147817292Y-99408600D01*
X147817292Y-99408600D02*
X147722054Y-99456219D01*
X147722054Y-99456219D02*
X147531578Y-99456219D01*
X147531578Y-99456219D02*
X147436340Y-99408600D01*
X147436340Y-99408600D02*
X147341102Y-99313361D01*
X147341102Y-99313361D02*
X147293483Y-99122885D01*
X147293483Y-99122885D02*
X147293483Y-98789552D01*
X147293483Y-98789552D02*
X147341102Y-98599076D01*
X147341102Y-98599076D02*
X147436340Y-98503838D01*
X147436340Y-98503838D02*
X147531578Y-98456219D01*
X148245864Y-98456219D02*
X148817292Y-98456219D01*
X148531578Y-99456219D02*
X148531578Y-98456219D01*
X149150626Y-99456219D02*
X149150626Y-98456219D01*
X149150626Y-98932409D02*
X149722054Y-98932409D01*
X149722054Y-99456219D02*
X149722054Y-98456219D01*
X126529673Y-99456219D02*
X126529673Y-98456219D01*
X126529673Y-98456219D02*
X126863006Y-99170504D01*
X126863006Y-99170504D02*
X127196339Y-98456219D01*
X127196339Y-98456219D02*
X127196339Y-99456219D01*
X127624911Y-99170504D02*
X128101101Y-99170504D01*
X127529673Y-99456219D02*
X127863006Y-98456219D01*
X127863006Y-98456219D02*
X128196339Y-99456219D01*
X129053482Y-98503838D02*
X128958244Y-98456219D01*
X128958244Y-98456219D02*
X128815387Y-98456219D01*
X128815387Y-98456219D02*
X128672530Y-98503838D01*
X128672530Y-98503838D02*
X128577292Y-98599076D01*
X128577292Y-98599076D02*
X128529673Y-98694314D01*
X128529673Y-98694314D02*
X128482054Y-98884790D01*
X128482054Y-98884790D02*
X128482054Y-99027647D01*
X128482054Y-99027647D02*
X128529673Y-99218123D01*
X128529673Y-99218123D02*
X128577292Y-99313361D01*
X128577292Y-99313361D02*
X128672530Y-99408600D01*
X128672530Y-99408600D02*
X128815387Y-99456219D01*
X128815387Y-99456219D02*
X128910625Y-99456219D01*
X128910625Y-99456219D02*
X129053482Y-99408600D01*
X129053482Y-99408600D02*
X129101101Y-99360980D01*
X129101101Y-99360980D02*
X129101101Y-99027647D01*
X129101101Y-99027647D02*
X128910625Y-99027647D01*
X129529673Y-99456219D02*
X129529673Y-98456219D01*
X129529673Y-98456219D02*
X130101101Y-99456219D01*
X130101101Y-99456219D02*
X130101101Y-98456219D01*
X130577292Y-98932409D02*
X130910625Y-98932409D01*
X131053482Y-99456219D02*
X130577292Y-99456219D01*
X130577292Y-99456219D02*
X130577292Y-98456219D01*
X130577292Y-98456219D02*
X131053482Y-98456219D01*
X131339197Y-98456219D02*
X131910625Y-98456219D01*
X131624911Y-99456219D02*
X131624911Y-98456219D01*
X132434435Y-98456219D02*
X132624911Y-98456219D01*
X132624911Y-98456219D02*
X132720149Y-98503838D01*
X132720149Y-98503838D02*
X132815387Y-98599076D01*
X132815387Y-98599076D02*
X132863006Y-98789552D01*
X132863006Y-98789552D02*
X132863006Y-99122885D01*
X132863006Y-99122885D02*
X132815387Y-99313361D01*
X132815387Y-99313361D02*
X132720149Y-99408600D01*
X132720149Y-99408600D02*
X132624911Y-99456219D01*
X132624911Y-99456219D02*
X132434435Y-99456219D01*
X132434435Y-99456219D02*
X132339197Y-99408600D01*
X132339197Y-99408600D02*
X132243959Y-99313361D01*
X132243959Y-99313361D02*
X132196340Y-99122885D01*
X132196340Y-99122885D02*
X132196340Y-98789552D01*
X132196340Y-98789552D02*
X132243959Y-98599076D01*
X132243959Y-98599076D02*
X132339197Y-98503838D01*
X132339197Y-98503838D02*
X132434435Y-98456219D01*
X133291578Y-99456219D02*
X133291578Y-98456219D01*
X133291578Y-98456219D02*
X133624911Y-99170504D01*
X133624911Y-99170504D02*
X133958244Y-98456219D01*
X133958244Y-98456219D02*
X133958244Y-99456219D01*
X134434435Y-98932409D02*
X134767768Y-98932409D01*
X134910625Y-99456219D02*
X134434435Y-99456219D01*
X134434435Y-99456219D02*
X134434435Y-98456219D01*
X134434435Y-98456219D02*
X134910625Y-98456219D01*
X135196340Y-98456219D02*
X135767768Y-98456219D01*
X135482054Y-99456219D02*
X135482054Y-98456219D01*
X136101102Y-98932409D02*
X136434435Y-98932409D01*
X136577292Y-99456219D02*
X136101102Y-99456219D01*
X136101102Y-99456219D02*
X136101102Y-98456219D01*
X136101102Y-98456219D02*
X136577292Y-98456219D01*
X137577292Y-99456219D02*
X137243959Y-98980028D01*
X137005864Y-99456219D02*
X137005864Y-98456219D01*
X137005864Y-98456219D02*
X137386816Y-98456219D01*
X137386816Y-98456219D02*
X137482054Y-98503838D01*
X137482054Y-98503838D02*
X137529673Y-98551457D01*
X137529673Y-98551457D02*
X137577292Y-98646695D01*
X137577292Y-98646695D02*
X137577292Y-98789552D01*
X137577292Y-98789552D02*
X137529673Y-98884790D01*
X137529673Y-98884790D02*
X137482054Y-98932409D01*
X137482054Y-98932409D02*
X137386816Y-98980028D01*
X137386816Y-98980028D02*
X137005864Y-98980028D01*
X117528482Y-98630838D02*
X117433244Y-98583219D01*
X117433244Y-98583219D02*
X117290387Y-98583219D01*
X117290387Y-98583219D02*
X117147530Y-98630838D01*
X117147530Y-98630838D02*
X117052292Y-98726076D01*
X117052292Y-98726076D02*
X117004673Y-98821314D01*
X117004673Y-98821314D02*
X116957054Y-99011790D01*
X116957054Y-99011790D02*
X116957054Y-99154647D01*
X116957054Y-99154647D02*
X117004673Y-99345123D01*
X117004673Y-99345123D02*
X117052292Y-99440361D01*
X117052292Y-99440361D02*
X117147530Y-99535600D01*
X117147530Y-99535600D02*
X117290387Y-99583219D01*
X117290387Y-99583219D02*
X117385625Y-99583219D01*
X117385625Y-99583219D02*
X117528482Y-99535600D01*
X117528482Y-99535600D02*
X117576101Y-99487980D01*
X117576101Y-99487980D02*
X117576101Y-99154647D01*
X117576101Y-99154647D02*
X117385625Y-99154647D01*
X118004673Y-99583219D02*
X118004673Y-98583219D01*
X118004673Y-98583219D02*
X118385625Y-98583219D01*
X118385625Y-98583219D02*
X118480863Y-98630838D01*
X118480863Y-98630838D02*
X118528482Y-98678457D01*
X118528482Y-98678457D02*
X118576101Y-98773695D01*
X118576101Y-98773695D02*
X118576101Y-98916552D01*
X118576101Y-98916552D02*
X118528482Y-99011790D01*
X118528482Y-99011790D02*
X118480863Y-99059409D01*
X118480863Y-99059409D02*
X118385625Y-99107028D01*
X118385625Y-99107028D02*
X118004673Y-99107028D01*
X118957054Y-99535600D02*
X119099911Y-99583219D01*
X119099911Y-99583219D02*
X119338006Y-99583219D01*
X119338006Y-99583219D02*
X119433244Y-99535600D01*
X119433244Y-99535600D02*
X119480863Y-99487980D01*
X119480863Y-99487980D02*
X119528482Y-99392742D01*
X119528482Y-99392742D02*
X119528482Y-99297504D01*
X119528482Y-99297504D02*
X119480863Y-99202266D01*
X119480863Y-99202266D02*
X119433244Y-99154647D01*
X119433244Y-99154647D02*
X119338006Y-99107028D01*
X119338006Y-99107028D02*
X119147530Y-99059409D01*
X119147530Y-99059409D02*
X119052292Y-99011790D01*
X119052292Y-99011790D02*
X119004673Y-98964171D01*
X119004673Y-98964171D02*
X118957054Y-98868933D01*
X118957054Y-98868933D02*
X118957054Y-98773695D01*
X118957054Y-98773695D02*
X119004673Y-98678457D01*
X119004673Y-98678457D02*
X119052292Y-98630838D01*
X119052292Y-98630838D02*
X119147530Y-98583219D01*
X119147530Y-98583219D02*
X119385625Y-98583219D01*
X119385625Y-98583219D02*
X119528482Y-98630838D01*
X145865387Y-64420219D02*
X145865387Y-65134504D01*
X145865387Y-65134504D02*
X145817768Y-65277361D01*
X145817768Y-65277361D02*
X145722530Y-65372600D01*
X145722530Y-65372600D02*
X145579673Y-65420219D01*
X145579673Y-65420219D02*
X145484435Y-65420219D01*
X146341578Y-64896409D02*
X146674911Y-64896409D01*
X146817768Y-65420219D02*
X146341578Y-65420219D01*
X146341578Y-65420219D02*
X146341578Y-64420219D01*
X146341578Y-64420219D02*
X146817768Y-64420219D01*
X147103483Y-64420219D02*
X147674911Y-64420219D01*
X147389197Y-65420219D02*
X147389197Y-64420219D01*
X147960626Y-65372600D02*
X148103483Y-65420219D01*
X148103483Y-65420219D02*
X148341578Y-65420219D01*
X148341578Y-65420219D02*
X148436816Y-65372600D01*
X148436816Y-65372600D02*
X148484435Y-65324980D01*
X148484435Y-65324980D02*
X148532054Y-65229742D01*
X148532054Y-65229742D02*
X148532054Y-65134504D01*
X148532054Y-65134504D02*
X148484435Y-65039266D01*
X148484435Y-65039266D02*
X148436816Y-64991647D01*
X148436816Y-64991647D02*
X148341578Y-64944028D01*
X148341578Y-64944028D02*
X148151102Y-64896409D01*
X148151102Y-64896409D02*
X148055864Y-64848790D01*
X148055864Y-64848790D02*
X148008245Y-64801171D01*
X148008245Y-64801171D02*
X147960626Y-64705933D01*
X147960626Y-64705933D02*
X147960626Y-64610695D01*
X147960626Y-64610695D02*
X148008245Y-64515457D01*
X148008245Y-64515457D02*
X148055864Y-64467838D01*
X148055864Y-64467838D02*
X148151102Y-64420219D01*
X148151102Y-64420219D02*
X148389197Y-64420219D01*
X148389197Y-64420219D02*
X148532054Y-64467838D01*
X149151102Y-64420219D02*
X149341578Y-64420219D01*
X149341578Y-64420219D02*
X149436816Y-64467838D01*
X149436816Y-64467838D02*
X149532054Y-64563076D01*
X149532054Y-64563076D02*
X149579673Y-64753552D01*
X149579673Y-64753552D02*
X149579673Y-65086885D01*
X149579673Y-65086885D02*
X149532054Y-65277361D01*
X149532054Y-65277361D02*
X149436816Y-65372600D01*
X149436816Y-65372600D02*
X149341578Y-65420219D01*
X149341578Y-65420219D02*
X149151102Y-65420219D01*
X149151102Y-65420219D02*
X149055864Y-65372600D01*
X149055864Y-65372600D02*
X148960626Y-65277361D01*
X148960626Y-65277361D02*
X148913007Y-65086885D01*
X148913007Y-65086885D02*
X148913007Y-64753552D01*
X148913007Y-64753552D02*
X148960626Y-64563076D01*
X148960626Y-64563076D02*
X149055864Y-64467838D01*
X149055864Y-64467838D02*
X149151102Y-64420219D01*
X150008245Y-65420219D02*
X150008245Y-64420219D01*
X150008245Y-64420219D02*
X150579673Y-65420219D01*
X150579673Y-65420219D02*
X150579673Y-64420219D01*
D12*
X113708855Y-65821119D02*
X113804093Y-65821119D01*
X113804093Y-65821119D02*
X113893378Y-65868738D01*
X113893378Y-65868738D02*
X113935045Y-65916357D01*
X113935045Y-65916357D02*
X113970759Y-66011595D01*
X113970759Y-66011595D02*
X113994569Y-66202071D01*
X113994569Y-66202071D02*
X113964807Y-66440166D01*
X113964807Y-66440166D02*
X113893378Y-66630642D01*
X113893378Y-66630642D02*
X113833855Y-66725880D01*
X113833855Y-66725880D02*
X113780283Y-66773500D01*
X113780283Y-66773500D02*
X113679093Y-66821119D01*
X113679093Y-66821119D02*
X113583855Y-66821119D01*
X113583855Y-66821119D02*
X113494569Y-66773500D01*
X113494569Y-66773500D02*
X113452902Y-66725880D01*
X113452902Y-66725880D02*
X113417188Y-66630642D01*
X113417188Y-66630642D02*
X113393378Y-66440166D01*
X113393378Y-66440166D02*
X113423140Y-66202071D01*
X113423140Y-66202071D02*
X113494569Y-66011595D01*
X113494569Y-66011595D02*
X113554093Y-65916357D01*
X113554093Y-65916357D02*
X113607664Y-65868738D01*
X113607664Y-65868738D02*
X113708855Y-65821119D01*
X113423140Y-69631119D02*
X114042188Y-69631119D01*
X114042188Y-69631119D02*
X113661236Y-70012071D01*
X113661236Y-70012071D02*
X113804093Y-70012071D01*
X113804093Y-70012071D02*
X113893378Y-70059690D01*
X113893378Y-70059690D02*
X113935045Y-70107309D01*
X113935045Y-70107309D02*
X113970759Y-70202547D01*
X113970759Y-70202547D02*
X113940997Y-70440642D01*
X113940997Y-70440642D02*
X113881474Y-70535880D01*
X113881474Y-70535880D02*
X113827902Y-70583500D01*
X113827902Y-70583500D02*
X113726712Y-70631119D01*
X113726712Y-70631119D02*
X113440997Y-70631119D01*
X113440997Y-70631119D02*
X113351712Y-70583500D01*
X113351712Y-70583500D02*
X113310045Y-70535880D01*
X123823188Y-66694119D02*
X123251759Y-66694119D01*
X123537474Y-66694119D02*
X123662474Y-65694119D01*
X123662474Y-65694119D02*
X123549378Y-65836976D01*
X123549378Y-65836976D02*
X123442236Y-65932214D01*
X123442236Y-65932214D02*
X123341045Y-65979833D01*
X123811283Y-69837452D02*
X123727950Y-70504119D01*
X123620807Y-69456500D02*
X123293426Y-70170785D01*
X123293426Y-70170785D02*
X123912474Y-70170785D01*
X133425569Y-69631119D02*
X132949378Y-69631119D01*
X132949378Y-69631119D02*
X132842236Y-70107309D01*
X132842236Y-70107309D02*
X132895807Y-70059690D01*
X132895807Y-70059690D02*
X132996997Y-70012071D01*
X132996997Y-70012071D02*
X133235093Y-70012071D01*
X133235093Y-70012071D02*
X133324378Y-70059690D01*
X133324378Y-70059690D02*
X133366045Y-70107309D01*
X133366045Y-70107309D02*
X133401759Y-70202547D01*
X133401759Y-70202547D02*
X133371997Y-70440642D01*
X133371997Y-70440642D02*
X133312474Y-70535880D01*
X133312474Y-70535880D02*
X133258902Y-70583500D01*
X133258902Y-70583500D02*
X133157712Y-70631119D01*
X133157712Y-70631119D02*
X132919616Y-70631119D01*
X132919616Y-70631119D02*
X132830331Y-70583500D01*
X132830331Y-70583500D02*
X132788664Y-70535880D01*
X132889855Y-65789357D02*
X132943426Y-65741738D01*
X132943426Y-65741738D02*
X133044616Y-65694119D01*
X133044616Y-65694119D02*
X133282712Y-65694119D01*
X133282712Y-65694119D02*
X133371997Y-65741738D01*
X133371997Y-65741738D02*
X133413664Y-65789357D01*
X133413664Y-65789357D02*
X133449378Y-65884595D01*
X133449378Y-65884595D02*
X133437474Y-65979833D01*
X133437474Y-65979833D02*
X133371997Y-66122690D01*
X133371997Y-66122690D02*
X132729140Y-66694119D01*
X132729140Y-66694119D02*
X133348188Y-66694119D01*
D11*
X142040780Y-66684673D02*
X143040780Y-66684673D01*
X143040780Y-66684673D02*
X143040780Y-67065625D01*
X143040780Y-67065625D02*
X142993161Y-67160863D01*
X142993161Y-67160863D02*
X142945542Y-67208482D01*
X142945542Y-67208482D02*
X142850304Y-67256101D01*
X142850304Y-67256101D02*
X142707447Y-67256101D01*
X142707447Y-67256101D02*
X142612209Y-67208482D01*
X142612209Y-67208482D02*
X142564590Y-67160863D01*
X142564590Y-67160863D02*
X142516971Y-67065625D01*
X142516971Y-67065625D02*
X142516971Y-66684673D01*
X143040780Y-67589435D02*
X142040780Y-67827530D01*
X142040780Y-67827530D02*
X142755066Y-68018006D01*
X142755066Y-68018006D02*
X142040780Y-68208482D01*
X142040780Y-68208482D02*
X143040780Y-68446578D01*
X142040780Y-68827530D02*
X143040780Y-68827530D01*
X143040780Y-68827530D02*
X142326495Y-69160863D01*
X142326495Y-69160863D02*
X143040780Y-69494196D01*
X143040780Y-69494196D02*
X142040780Y-69494196D01*
D10*
X168998810Y-85057819D02*
X168998810Y-84057819D01*
X170046428Y-84962580D02*
X169998809Y-85010200D01*
X169998809Y-85010200D02*
X169855952Y-85057819D01*
X169855952Y-85057819D02*
X169760714Y-85057819D01*
X169760714Y-85057819D02*
X169617857Y-85010200D01*
X169617857Y-85010200D02*
X169522619Y-84914961D01*
X169522619Y-84914961D02*
X169475000Y-84819723D01*
X169475000Y-84819723D02*
X169427381Y-84629247D01*
X169427381Y-84629247D02*
X169427381Y-84486390D01*
X169427381Y-84486390D02*
X169475000Y-84295914D01*
X169475000Y-84295914D02*
X169522619Y-84200676D01*
X169522619Y-84200676D02*
X169617857Y-84105438D01*
X169617857Y-84105438D02*
X169760714Y-84057819D01*
X169760714Y-84057819D02*
X169855952Y-84057819D01*
X169855952Y-84057819D02*
X169998809Y-84105438D01*
X169998809Y-84105438D02*
X170046428Y-84153057D01*
X170998809Y-85057819D02*
X170427381Y-85057819D01*
X170713095Y-85057819D02*
X170713095Y-84057819D01*
X170713095Y-84057819D02*
X170617857Y-84200676D01*
X170617857Y-84200676D02*
X170522619Y-84295914D01*
X170522619Y-84295914D02*
X170427381Y-84343533D01*
X172094333Y-82898819D02*
X171761000Y-82422628D01*
X171522905Y-82898819D02*
X171522905Y-81898819D01*
X171522905Y-81898819D02*
X171903857Y-81898819D01*
X171903857Y-81898819D02*
X171999095Y-81946438D01*
X171999095Y-81946438D02*
X172046714Y-81994057D01*
X172046714Y-81994057D02*
X172094333Y-82089295D01*
X172094333Y-82089295D02*
X172094333Y-82232152D01*
X172094333Y-82232152D02*
X172046714Y-82327390D01*
X172046714Y-82327390D02*
X171999095Y-82375009D01*
X171999095Y-82375009D02*
X171903857Y-82422628D01*
X171903857Y-82422628D02*
X171522905Y-82422628D01*
X173046714Y-82898819D02*
X172475286Y-82898819D01*
X172761000Y-82898819D02*
X172761000Y-81898819D01*
X172761000Y-81898819D02*
X172665762Y-82041676D01*
X172665762Y-82041676D02*
X172570524Y-82136914D01*
X172570524Y-82136914D02*
X172475286Y-82184533D01*
X175269333Y-72262580D02*
X175221714Y-72310200D01*
X175221714Y-72310200D02*
X175078857Y-72357819D01*
X175078857Y-72357819D02*
X174983619Y-72357819D01*
X174983619Y-72357819D02*
X174840762Y-72310200D01*
X174840762Y-72310200D02*
X174745524Y-72214961D01*
X174745524Y-72214961D02*
X174697905Y-72119723D01*
X174697905Y-72119723D02*
X174650286Y-71929247D01*
X174650286Y-71929247D02*
X174650286Y-71786390D01*
X174650286Y-71786390D02*
X174697905Y-71595914D01*
X174697905Y-71595914D02*
X174745524Y-71500676D01*
X174745524Y-71500676D02*
X174840762Y-71405438D01*
X174840762Y-71405438D02*
X174983619Y-71357819D01*
X174983619Y-71357819D02*
X175078857Y-71357819D01*
X175078857Y-71357819D02*
X175221714Y-71405438D01*
X175221714Y-71405438D02*
X175269333Y-71453057D01*
X176126476Y-71691152D02*
X176126476Y-72357819D01*
X175888381Y-71310200D02*
X175650286Y-72024485D01*
X175650286Y-72024485D02*
X176269333Y-72024485D01*
X183016333Y-76802819D02*
X182683000Y-76326628D01*
X182444905Y-76802819D02*
X182444905Y-75802819D01*
X182444905Y-75802819D02*
X182825857Y-75802819D01*
X182825857Y-75802819D02*
X182921095Y-75850438D01*
X182921095Y-75850438D02*
X182968714Y-75898057D01*
X182968714Y-75898057D02*
X183016333Y-75993295D01*
X183016333Y-75993295D02*
X183016333Y-76136152D01*
X183016333Y-76136152D02*
X182968714Y-76231390D01*
X182968714Y-76231390D02*
X182921095Y-76279009D01*
X182921095Y-76279009D02*
X182825857Y-76326628D01*
X182825857Y-76326628D02*
X182444905Y-76326628D01*
X183873476Y-75802819D02*
X183683000Y-75802819D01*
X183683000Y-75802819D02*
X183587762Y-75850438D01*
X183587762Y-75850438D02*
X183540143Y-75898057D01*
X183540143Y-75898057D02*
X183444905Y-76040914D01*
X183444905Y-76040914D02*
X183397286Y-76231390D01*
X183397286Y-76231390D02*
X183397286Y-76612342D01*
X183397286Y-76612342D02*
X183444905Y-76707580D01*
X183444905Y-76707580D02*
X183492524Y-76755200D01*
X183492524Y-76755200D02*
X183587762Y-76802819D01*
X183587762Y-76802819D02*
X183778238Y-76802819D01*
X183778238Y-76802819D02*
X183873476Y-76755200D01*
X183873476Y-76755200D02*
X183921095Y-76707580D01*
X183921095Y-76707580D02*
X183968714Y-76612342D01*
X183968714Y-76612342D02*
X183968714Y-76374247D01*
X183968714Y-76374247D02*
X183921095Y-76279009D01*
X183921095Y-76279009D02*
X183873476Y-76231390D01*
X183873476Y-76231390D02*
X183778238Y-76183771D01*
X183778238Y-76183771D02*
X183587762Y-76183771D01*
X183587762Y-76183771D02*
X183492524Y-76231390D01*
X183492524Y-76231390D02*
X183444905Y-76279009D01*
X183444905Y-76279009D02*
X183397286Y-76374247D01*
X177936333Y-78362319D02*
X177603000Y-77886128D01*
X177364905Y-78362319D02*
X177364905Y-77362319D01*
X177364905Y-77362319D02*
X177745857Y-77362319D01*
X177745857Y-77362319D02*
X177841095Y-77409938D01*
X177841095Y-77409938D02*
X177888714Y-77457557D01*
X177888714Y-77457557D02*
X177936333Y-77552795D01*
X177936333Y-77552795D02*
X177936333Y-77695652D01*
X177936333Y-77695652D02*
X177888714Y-77790890D01*
X177888714Y-77790890D02*
X177841095Y-77838509D01*
X177841095Y-77838509D02*
X177745857Y-77886128D01*
X177745857Y-77886128D02*
X177364905Y-77886128D01*
X178317286Y-77457557D02*
X178364905Y-77409938D01*
X178364905Y-77409938D02*
X178460143Y-77362319D01*
X178460143Y-77362319D02*
X178698238Y-77362319D01*
X178698238Y-77362319D02*
X178793476Y-77409938D01*
X178793476Y-77409938D02*
X178841095Y-77457557D01*
X178841095Y-77457557D02*
X178888714Y-77552795D01*
X178888714Y-77552795D02*
X178888714Y-77648033D01*
X178888714Y-77648033D02*
X178841095Y-77790890D01*
X178841095Y-77790890D02*
X178269667Y-78362319D01*
X178269667Y-78362319D02*
X178888714Y-78362319D01*
X177936333Y-82767080D02*
X177888714Y-82814700D01*
X177888714Y-82814700D02*
X177745857Y-82862319D01*
X177745857Y-82862319D02*
X177650619Y-82862319D01*
X177650619Y-82862319D02*
X177507762Y-82814700D01*
X177507762Y-82814700D02*
X177412524Y-82719461D01*
X177412524Y-82719461D02*
X177364905Y-82624223D01*
X177364905Y-82624223D02*
X177317286Y-82433747D01*
X177317286Y-82433747D02*
X177317286Y-82290890D01*
X177317286Y-82290890D02*
X177364905Y-82100414D01*
X177364905Y-82100414D02*
X177412524Y-82005176D01*
X177412524Y-82005176D02*
X177507762Y-81909938D01*
X177507762Y-81909938D02*
X177650619Y-81862319D01*
X177650619Y-81862319D02*
X177745857Y-81862319D01*
X177745857Y-81862319D02*
X177888714Y-81909938D01*
X177888714Y-81909938D02*
X177936333Y-81957557D01*
X178269667Y-81862319D02*
X178888714Y-81862319D01*
X178888714Y-81862319D02*
X178555381Y-82243271D01*
X178555381Y-82243271D02*
X178698238Y-82243271D01*
X178698238Y-82243271D02*
X178793476Y-82290890D01*
X178793476Y-82290890D02*
X178841095Y-82338509D01*
X178841095Y-82338509D02*
X178888714Y-82433747D01*
X178888714Y-82433747D02*
X178888714Y-82671842D01*
X178888714Y-82671842D02*
X178841095Y-82767080D01*
X178841095Y-82767080D02*
X178793476Y-82814700D01*
X178793476Y-82814700D02*
X178698238Y-82862319D01*
X178698238Y-82862319D02*
X178412524Y-82862319D01*
X178412524Y-82862319D02*
X178317286Y-82814700D01*
X178317286Y-82814700D02*
X178269667Y-82767080D01*
X171967333Y-78362319D02*
X171634000Y-77886128D01*
X171395905Y-78362319D02*
X171395905Y-77362319D01*
X171395905Y-77362319D02*
X171776857Y-77362319D01*
X171776857Y-77362319D02*
X171872095Y-77409938D01*
X171872095Y-77409938D02*
X171919714Y-77457557D01*
X171919714Y-77457557D02*
X171967333Y-77552795D01*
X171967333Y-77552795D02*
X171967333Y-77695652D01*
X171967333Y-77695652D02*
X171919714Y-77790890D01*
X171919714Y-77790890D02*
X171872095Y-77838509D01*
X171872095Y-77838509D02*
X171776857Y-77886128D01*
X171776857Y-77886128D02*
X171395905Y-77886128D01*
X172300667Y-77362319D02*
X172919714Y-77362319D01*
X172919714Y-77362319D02*
X172586381Y-77743271D01*
X172586381Y-77743271D02*
X172729238Y-77743271D01*
X172729238Y-77743271D02*
X172824476Y-77790890D01*
X172824476Y-77790890D02*
X172872095Y-77838509D01*
X172872095Y-77838509D02*
X172919714Y-77933747D01*
X172919714Y-77933747D02*
X172919714Y-78171842D01*
X172919714Y-78171842D02*
X172872095Y-78267080D01*
X172872095Y-78267080D02*
X172824476Y-78314700D01*
X172824476Y-78314700D02*
X172729238Y-78362319D01*
X172729238Y-78362319D02*
X172443524Y-78362319D01*
X172443524Y-78362319D02*
X172348286Y-78314700D01*
X172348286Y-78314700D02*
X172300667Y-78267080D01*
X160283333Y-78866580D02*
X160235714Y-78914200D01*
X160235714Y-78914200D02*
X160092857Y-78961819D01*
X160092857Y-78961819D02*
X159997619Y-78961819D01*
X159997619Y-78961819D02*
X159854762Y-78914200D01*
X159854762Y-78914200D02*
X159759524Y-78818961D01*
X159759524Y-78818961D02*
X159711905Y-78723723D01*
X159711905Y-78723723D02*
X159664286Y-78533247D01*
X159664286Y-78533247D02*
X159664286Y-78390390D01*
X159664286Y-78390390D02*
X159711905Y-78199914D01*
X159711905Y-78199914D02*
X159759524Y-78104676D01*
X159759524Y-78104676D02*
X159854762Y-78009438D01*
X159854762Y-78009438D02*
X159997619Y-77961819D01*
X159997619Y-77961819D02*
X160092857Y-77961819D01*
X160092857Y-77961819D02*
X160235714Y-78009438D01*
X160235714Y-78009438D02*
X160283333Y-78057057D01*
X161235714Y-78961819D02*
X160664286Y-78961819D01*
X160950000Y-78961819D02*
X160950000Y-77961819D01*
X160950000Y-77961819D02*
X160854762Y-78104676D01*
X160854762Y-78104676D02*
X160759524Y-78199914D01*
X160759524Y-78199914D02*
X160664286Y-78247533D01*
X162823333Y-82295580D02*
X162775714Y-82343200D01*
X162775714Y-82343200D02*
X162632857Y-82390819D01*
X162632857Y-82390819D02*
X162537619Y-82390819D01*
X162537619Y-82390819D02*
X162394762Y-82343200D01*
X162394762Y-82343200D02*
X162299524Y-82247961D01*
X162299524Y-82247961D02*
X162251905Y-82152723D01*
X162251905Y-82152723D02*
X162204286Y-81962247D01*
X162204286Y-81962247D02*
X162204286Y-81819390D01*
X162204286Y-81819390D02*
X162251905Y-81628914D01*
X162251905Y-81628914D02*
X162299524Y-81533676D01*
X162299524Y-81533676D02*
X162394762Y-81438438D01*
X162394762Y-81438438D02*
X162537619Y-81390819D01*
X162537619Y-81390819D02*
X162632857Y-81390819D01*
X162632857Y-81390819D02*
X162775714Y-81438438D01*
X162775714Y-81438438D02*
X162823333Y-81486057D01*
X163204286Y-81486057D02*
X163251905Y-81438438D01*
X163251905Y-81438438D02*
X163347143Y-81390819D01*
X163347143Y-81390819D02*
X163585238Y-81390819D01*
X163585238Y-81390819D02*
X163680476Y-81438438D01*
X163680476Y-81438438D02*
X163728095Y-81486057D01*
X163728095Y-81486057D02*
X163775714Y-81581295D01*
X163775714Y-81581295D02*
X163775714Y-81676533D01*
X163775714Y-81676533D02*
X163728095Y-81819390D01*
X163728095Y-81819390D02*
X163156667Y-82390819D01*
X163156667Y-82390819D02*
X163775714Y-82390819D01*
X160283333Y-73627819D02*
X159807143Y-73627819D01*
X159807143Y-73627819D02*
X159807143Y-72627819D01*
X161140476Y-73627819D02*
X160569048Y-73627819D01*
X160854762Y-73627819D02*
X160854762Y-72627819D01*
X160854762Y-72627819D02*
X160759524Y-72770676D01*
X160759524Y-72770676D02*
X160664286Y-72865914D01*
X160664286Y-72865914D02*
X160569048Y-72913533D01*
X175269333Y-74548580D02*
X175221714Y-74596200D01*
X175221714Y-74596200D02*
X175078857Y-74643819D01*
X175078857Y-74643819D02*
X174983619Y-74643819D01*
X174983619Y-74643819D02*
X174840762Y-74596200D01*
X174840762Y-74596200D02*
X174745524Y-74500961D01*
X174745524Y-74500961D02*
X174697905Y-74405723D01*
X174697905Y-74405723D02*
X174650286Y-74215247D01*
X174650286Y-74215247D02*
X174650286Y-74072390D01*
X174650286Y-74072390D02*
X174697905Y-73881914D01*
X174697905Y-73881914D02*
X174745524Y-73786676D01*
X174745524Y-73786676D02*
X174840762Y-73691438D01*
X174840762Y-73691438D02*
X174983619Y-73643819D01*
X174983619Y-73643819D02*
X175078857Y-73643819D01*
X175078857Y-73643819D02*
X175221714Y-73691438D01*
X175221714Y-73691438D02*
X175269333Y-73739057D01*
X176174095Y-73643819D02*
X175697905Y-73643819D01*
X175697905Y-73643819D02*
X175650286Y-74120009D01*
X175650286Y-74120009D02*
X175697905Y-74072390D01*
X175697905Y-74072390D02*
X175793143Y-74024771D01*
X175793143Y-74024771D02*
X176031238Y-74024771D01*
X176031238Y-74024771D02*
X176126476Y-74072390D01*
X176126476Y-74072390D02*
X176174095Y-74120009D01*
X176174095Y-74120009D02*
X176221714Y-74215247D01*
X176221714Y-74215247D02*
X176221714Y-74453342D01*
X176221714Y-74453342D02*
X176174095Y-74548580D01*
X176174095Y-74548580D02*
X176126476Y-74596200D01*
X176126476Y-74596200D02*
X176031238Y-74643819D01*
X176031238Y-74643819D02*
X175793143Y-74643819D01*
X175793143Y-74643819D02*
X175697905Y-74596200D01*
X175697905Y-74596200D02*
X175650286Y-74548580D01*
X183016333Y-72484819D02*
X182683000Y-72008628D01*
X182444905Y-72484819D02*
X182444905Y-71484819D01*
X182444905Y-71484819D02*
X182825857Y-71484819D01*
X182825857Y-71484819D02*
X182921095Y-71532438D01*
X182921095Y-71532438D02*
X182968714Y-71580057D01*
X182968714Y-71580057D02*
X183016333Y-71675295D01*
X183016333Y-71675295D02*
X183016333Y-71818152D01*
X183016333Y-71818152D02*
X182968714Y-71913390D01*
X182968714Y-71913390D02*
X182921095Y-71961009D01*
X182921095Y-71961009D02*
X182825857Y-72008628D01*
X182825857Y-72008628D02*
X182444905Y-72008628D01*
X183349667Y-71484819D02*
X184016333Y-71484819D01*
X184016333Y-71484819D02*
X183587762Y-72484819D01*
X162696333Y-85851580D02*
X162648714Y-85899200D01*
X162648714Y-85899200D02*
X162505857Y-85946819D01*
X162505857Y-85946819D02*
X162410619Y-85946819D01*
X162410619Y-85946819D02*
X162267762Y-85899200D01*
X162267762Y-85899200D02*
X162172524Y-85803961D01*
X162172524Y-85803961D02*
X162124905Y-85708723D01*
X162124905Y-85708723D02*
X162077286Y-85518247D01*
X162077286Y-85518247D02*
X162077286Y-85375390D01*
X162077286Y-85375390D02*
X162124905Y-85184914D01*
X162124905Y-85184914D02*
X162172524Y-85089676D01*
X162172524Y-85089676D02*
X162267762Y-84994438D01*
X162267762Y-84994438D02*
X162410619Y-84946819D01*
X162410619Y-84946819D02*
X162505857Y-84946819D01*
X162505857Y-84946819D02*
X162648714Y-84994438D01*
X162648714Y-84994438D02*
X162696333Y-85042057D01*
X163553476Y-84946819D02*
X163363000Y-84946819D01*
X163363000Y-84946819D02*
X163267762Y-84994438D01*
X163267762Y-84994438D02*
X163220143Y-85042057D01*
X163220143Y-85042057D02*
X163124905Y-85184914D01*
X163124905Y-85184914D02*
X163077286Y-85375390D01*
X163077286Y-85375390D02*
X163077286Y-85756342D01*
X163077286Y-85756342D02*
X163124905Y-85851580D01*
X163124905Y-85851580D02*
X163172524Y-85899200D01*
X163172524Y-85899200D02*
X163267762Y-85946819D01*
X163267762Y-85946819D02*
X163458238Y-85946819D01*
X163458238Y-85946819D02*
X163553476Y-85899200D01*
X163553476Y-85899200D02*
X163601095Y-85851580D01*
X163601095Y-85851580D02*
X163648714Y-85756342D01*
X163648714Y-85756342D02*
X163648714Y-85518247D01*
X163648714Y-85518247D02*
X163601095Y-85423009D01*
X163601095Y-85423009D02*
X163553476Y-85375390D01*
X163553476Y-85375390D02*
X163458238Y-85327771D01*
X163458238Y-85327771D02*
X163267762Y-85327771D01*
X163267762Y-85327771D02*
X163172524Y-85375390D01*
X163172524Y-85375390D02*
X163124905Y-85423009D01*
X163124905Y-85423009D02*
X163077286Y-85518247D01*
X169173333Y-71087819D02*
X168840000Y-70611628D01*
X168601905Y-71087819D02*
X168601905Y-70087819D01*
X168601905Y-70087819D02*
X168982857Y-70087819D01*
X168982857Y-70087819D02*
X169078095Y-70135438D01*
X169078095Y-70135438D02*
X169125714Y-70183057D01*
X169125714Y-70183057D02*
X169173333Y-70278295D01*
X169173333Y-70278295D02*
X169173333Y-70421152D01*
X169173333Y-70421152D02*
X169125714Y-70516390D01*
X169125714Y-70516390D02*
X169078095Y-70564009D01*
X169078095Y-70564009D02*
X168982857Y-70611628D01*
X168982857Y-70611628D02*
X168601905Y-70611628D01*
X170030476Y-70421152D02*
X170030476Y-71087819D01*
X169792381Y-70040200D02*
X169554286Y-70754485D01*
X169554286Y-70754485D02*
X170173333Y-70754485D01*
D11*
%TO.C,IC1*%
X166125000Y-83645000D02*
X166125000Y-82145000D01*
D13*
%TO.C,J11*%
X133847000Y-68795000D02*
X133847000Y-71455000D01*
X138987000Y-68795000D02*
X133847000Y-68795000D01*
X140257000Y-68795000D02*
X141587000Y-68795000D01*
X138987000Y-71455000D02*
X133847000Y-71455000D01*
X141587000Y-68795000D02*
X141587000Y-70125000D01*
X138987000Y-68795000D02*
X138987000Y-71455000D01*
%TO.C,J2*%
X188205000Y-69885000D02*
X189265000Y-69885000D01*
X187145000Y-71945000D02*
X189265000Y-71945000D01*
X187145000Y-94005000D02*
X189265000Y-94005000D01*
X189265000Y-69885000D02*
X189265000Y-70945000D01*
X187145000Y-71945000D02*
X187145000Y-94005000D01*
X189265000Y-71945000D02*
X189265000Y-94005000D01*
%TO.C,J10*%
X124195000Y-68795000D02*
X124195000Y-71455000D01*
X129335000Y-68795000D02*
X124195000Y-68795000D01*
X130605000Y-68795000D02*
X131935000Y-68795000D01*
X129335000Y-71455000D02*
X124195000Y-71455000D01*
X131935000Y-68795000D02*
X131935000Y-70125000D01*
X129335000Y-68795000D02*
X129335000Y-71455000D01*
%TO.C,J9*%
X114543000Y-68795000D02*
X114543000Y-71455000D01*
X119683000Y-68795000D02*
X114543000Y-68795000D01*
X120953000Y-68795000D02*
X122283000Y-68795000D01*
X119683000Y-71455000D02*
X114543000Y-71455000D01*
X122283000Y-68795000D02*
X122283000Y-70125000D01*
X119683000Y-68795000D02*
X119683000Y-71455000D01*
%TO.C,J8*%
X133847000Y-64985000D02*
X133847000Y-67645000D01*
X138987000Y-64985000D02*
X133847000Y-64985000D01*
X140257000Y-64985000D02*
X141587000Y-64985000D01*
X138987000Y-67645000D02*
X133847000Y-67645000D01*
X141587000Y-64985000D02*
X141587000Y-66315000D01*
X138987000Y-64985000D02*
X138987000Y-67645000D01*
%TO.C,J7*%
X124195000Y-64985000D02*
X124195000Y-67645000D01*
X129335000Y-64985000D02*
X124195000Y-64985000D01*
X130605000Y-64985000D02*
X131935000Y-64985000D01*
X129335000Y-67645000D02*
X124195000Y-67645000D01*
X131935000Y-64985000D02*
X131935000Y-66315000D01*
X129335000Y-64985000D02*
X129335000Y-67645000D01*
%TO.C,J6*%
X119683000Y-64985000D02*
X119683000Y-67645000D01*
X122283000Y-64985000D02*
X122283000Y-66315000D01*
X119683000Y-67645000D02*
X114543000Y-67645000D01*
X120953000Y-64985000D02*
X122283000Y-64985000D01*
X119683000Y-64985000D02*
X114543000Y-64985000D01*
X114543000Y-64985000D02*
X114543000Y-67645000D01*
%TO.C,J3*%
X160475000Y-64340000D02*
X161805000Y-64340000D01*
X163075000Y-67000000D02*
X183455000Y-67000000D01*
X183455000Y-67000000D02*
X183455000Y-64340000D01*
X163075000Y-67000000D02*
X163075000Y-64340000D01*
X163075000Y-64340000D02*
X183455000Y-64340000D01*
X160475000Y-65670000D02*
X160475000Y-64340000D01*
%TO.C,J1*%
X184015000Y-98195000D02*
X184015000Y-99255000D01*
X181955000Y-97135000D02*
X181955000Y-99255000D01*
X159895000Y-97135000D02*
X159895000Y-99255000D01*
X184015000Y-99255000D02*
X182955000Y-99255000D01*
X181955000Y-97135000D02*
X159895000Y-97135000D01*
X181955000Y-99255000D02*
X159895000Y-99255000D01*
%TO.C,J13*%
X111693000Y-95635000D02*
X111693000Y-98135000D01*
X111693000Y-98135000D02*
X114193000Y-98135000D01*
X111993000Y-93815000D02*
X111993000Y-97835000D01*
X111993000Y-95525000D02*
X112493000Y-95525000D01*
X111993000Y-96335000D02*
X112993000Y-96335000D01*
X111993000Y-97835000D02*
X124713000Y-97835000D01*
X112493000Y-94315000D02*
X124213000Y-94315000D01*
X112493000Y-95525000D02*
X112493000Y-94315000D01*
X112993000Y-96335000D02*
X112993000Y-97835000D01*
X123713000Y-96335000D02*
X123713000Y-97835000D01*
X124213000Y-94315000D02*
X124213000Y-95525000D01*
X124213000Y-95525000D02*
X124713000Y-95525000D01*
X124713000Y-93815000D02*
X111993000Y-93815000D01*
X124713000Y-96335000D02*
X123713000Y-96335000D01*
X124713000Y-97835000D02*
X124713000Y-93815000D01*
%TO.C,J15*%
X114603000Y-90877000D02*
X150223000Y-90877000D01*
X114603000Y-90877000D02*
X114603000Y-88217000D01*
X150223000Y-90877000D02*
X150223000Y-88217000D01*
X112003000Y-89547000D02*
X112003000Y-88217000D01*
X112003000Y-88217000D02*
X113333000Y-88217000D01*
X114603000Y-88217000D02*
X150223000Y-88217000D01*
%TO.C,R1*%
X174690000Y-82668752D02*
X174690000Y-82146248D01*
X173220000Y-82668752D02*
X173220000Y-82146248D01*
%TO.C,J17*%
X114603000Y-87304600D02*
X150223000Y-87304600D01*
X114603000Y-87304600D02*
X114603000Y-84644600D01*
X150223000Y-87304600D02*
X150223000Y-84644600D01*
X112003000Y-85974600D02*
X112003000Y-84644600D01*
X112003000Y-84644600D02*
X113333000Y-84644600D01*
X114603000Y-84644600D02*
X150223000Y-84644600D01*
%TO.C,C4*%
X173091252Y-72680000D02*
X172568748Y-72680000D01*
X173091252Y-71210000D02*
X172568748Y-71210000D01*
%TO.C,R6*%
X185940000Y-76493752D02*
X185940000Y-75971248D01*
X184470000Y-76493752D02*
X184470000Y-75971248D01*
%TO.C,R2*%
X175470000Y-77646248D02*
X175470000Y-78168752D01*
X176940000Y-77646248D02*
X176940000Y-78168752D01*
%TO.C,C3*%
X175470000Y-82146248D02*
X175470000Y-82668752D01*
X176940000Y-82146248D02*
X176940000Y-82668752D01*
%TO.C,J12*%
X138429000Y-97835000D02*
X138429000Y-93815000D01*
X138429000Y-96335000D02*
X137429000Y-96335000D01*
X138429000Y-93815000D02*
X125709000Y-93815000D01*
X137929000Y-95525000D02*
X138429000Y-95525000D01*
X137929000Y-94315000D02*
X137929000Y-95525000D01*
X137429000Y-96335000D02*
X137429000Y-97835000D01*
X126709000Y-96335000D02*
X126709000Y-97835000D01*
X126209000Y-95525000D02*
X126209000Y-94315000D01*
X126209000Y-94315000D02*
X137929000Y-94315000D01*
X125709000Y-97835000D02*
X138429000Y-97835000D01*
X125709000Y-96335000D02*
X126709000Y-96335000D01*
X125709000Y-95525000D02*
X126209000Y-95525000D01*
X125709000Y-93815000D02*
X125709000Y-97835000D01*
X125409000Y-98135000D02*
X127909000Y-98135000D01*
X125409000Y-95635000D02*
X125409000Y-98135000D01*
%TO.C,J16*%
X114603000Y-75637000D02*
X150223000Y-75637000D01*
X114603000Y-75637000D02*
X114603000Y-72977000D01*
X150223000Y-75637000D02*
X150223000Y-72977000D01*
X112003000Y-74307000D02*
X112003000Y-72977000D01*
X112003000Y-72977000D02*
X113333000Y-72977000D01*
X114603000Y-72977000D02*
X150223000Y-72977000D01*
%TO.C,R3*%
X173220000Y-77646248D02*
X173220000Y-78168752D01*
X174690000Y-77646248D02*
X174690000Y-78168752D01*
%TO.C,J18*%
X114603000Y-79202000D02*
X150223000Y-79202000D01*
X114603000Y-79202000D02*
X114603000Y-76542000D01*
X150223000Y-79202000D02*
X150223000Y-76542000D01*
X112003000Y-77872000D02*
X112003000Y-76542000D01*
X112003000Y-76542000D02*
X113333000Y-76542000D01*
X114603000Y-76542000D02*
X150223000Y-76542000D01*
%TO.C,C1*%
X163190000Y-78221248D02*
X163190000Y-78743752D01*
X161720000Y-78221248D02*
X161720000Y-78743752D01*
%TO.C,J5*%
X152145000Y-97835000D02*
X152145000Y-93815000D01*
X152145000Y-96335000D02*
X151145000Y-96335000D01*
X152145000Y-93815000D02*
X139425000Y-93815000D01*
X151645000Y-95525000D02*
X152145000Y-95525000D01*
X151645000Y-94315000D02*
X151645000Y-95525000D01*
X151145000Y-96335000D02*
X151145000Y-97835000D01*
X140425000Y-96335000D02*
X140425000Y-97835000D01*
X139925000Y-95525000D02*
X139925000Y-94315000D01*
X139925000Y-94315000D02*
X151645000Y-94315000D01*
X139425000Y-97835000D02*
X152145000Y-97835000D01*
X139425000Y-96335000D02*
X140425000Y-96335000D01*
X139425000Y-95525000D02*
X139925000Y-95525000D01*
X139425000Y-93815000D02*
X139425000Y-97835000D01*
X139125000Y-98135000D02*
X141625000Y-98135000D01*
X139125000Y-95635000D02*
X139125000Y-98135000D01*
%TO.C,C2*%
X164220000Y-82168752D02*
X164220000Y-81646248D01*
X165690000Y-82168752D02*
X165690000Y-81646248D01*
%TO.C,L1*%
X161505000Y-70095000D02*
X161505000Y-70495000D01*
X161505000Y-76295000D02*
X161505000Y-75895000D01*
X167705000Y-70095000D02*
X161505000Y-70095000D01*
X167705000Y-70095000D02*
X167705000Y-70495000D01*
X167705000Y-76295000D02*
X161505000Y-76295000D01*
X167705000Y-76295000D02*
X167705000Y-75895000D01*
%TO.C,C5*%
X173091252Y-74930000D02*
X172568748Y-74930000D01*
X173091252Y-73460000D02*
X172568748Y-73460000D01*
%TO.C,R7*%
X185940000Y-71918752D02*
X185940000Y-71396248D01*
X184470000Y-71918752D02*
X184470000Y-71396248D01*
%TO.C,C6*%
X165656248Y-84710000D02*
X166178752Y-84710000D01*
X165656248Y-86180000D02*
X166178752Y-86180000D01*
%TO.C,J14*%
X152311000Y-68335000D02*
X152311000Y-65835000D01*
X152311000Y-65835000D02*
X149811000Y-65835000D01*
X152011000Y-70155000D02*
X152011000Y-66135000D01*
X152011000Y-68445000D02*
X151511000Y-68445000D01*
X152011000Y-67635000D02*
X151011000Y-67635000D01*
X152011000Y-66135000D02*
X144291000Y-66135000D01*
X151511000Y-69655000D02*
X144791000Y-69655000D01*
X151511000Y-68445000D02*
X151511000Y-69655000D01*
X151011000Y-67635000D02*
X151011000Y-66135000D01*
X145291000Y-67635000D02*
X145291000Y-66135000D01*
X144791000Y-69655000D02*
X144791000Y-68445000D01*
X144791000Y-68445000D02*
X144291000Y-68445000D01*
X144291000Y-70155000D02*
X152011000Y-70155000D01*
X144291000Y-67635000D02*
X145291000Y-67635000D01*
X144291000Y-66135000D02*
X144291000Y-70155000D01*
%TO.C,R4*%
X168632500Y-73331252D02*
X168632500Y-72808748D01*
X170102500Y-73331252D02*
X170102500Y-72808748D01*
%TD*%
M02*
