%TF.GenerationSoftware,KiCad,Pcbnew,7.0.10*%
%TF.CreationDate,2024-02-12T04:38:07-05:00*%
%TF.ProjectId,SanBan,53616e42-616e-42e6-9b69-6361645f7063,rev?*%
%TF.SameCoordinates,Original*%
%TF.FileFunction,Soldermask,Bot*%
%TF.FilePolarity,Negative*%
%FSLAX46Y46*%
G04 Gerber Fmt 4.6, Leading zero omitted, Abs format (unit mm)*
G04 Created by KiCad (PCBNEW 7.0.10) date 2024-02-12 04:38:07*
%MOMM*%
%LPD*%
G01*
G04 APERTURE LIST*
G04 Aperture macros list*
%AMRoundRect*
0 Rectangle with rounded corners*
0 $1 Rounding radius*
0 $2 $3 $4 $5 $6 $7 $8 $9 X,Y pos of 4 corners*
0 Add a 4 corners polygon primitive as box body*
4,1,4,$2,$3,$4,$5,$6,$7,$8,$9,$2,$3,0*
0 Add four circle primitives for the rounded corners*
1,1,$1+$1,$2,$3*
1,1,$1+$1,$4,$5*
1,1,$1+$1,$6,$7*
1,1,$1+$1,$8,$9*
0 Add four rect primitives between the rounded corners*
20,1,$1+$1,$2,$3,$4,$5,0*
20,1,$1+$1,$4,$5,$6,$7,0*
20,1,$1+$1,$6,$7,$8,$9,0*
20,1,$1+$1,$8,$9,$2,$3,0*%
G04 Aperture macros list end*
%ADD10O,1.700000X1.700000*%
%ADD11R,1.700000X1.700000*%
%ADD12O,1.350000X1.350000*%
%ADD13R,1.350000X1.350000*%
%ADD14RoundRect,0.250000X-0.600000X-0.725000X0.600000X-0.725000X0.600000X0.725000X-0.600000X0.725000X0*%
%ADD15O,1.700000X1.950000*%
%ADD16RoundRect,0.250000X0.600000X0.750000X-0.600000X0.750000X-0.600000X-0.750000X0.600000X-0.750000X0*%
%ADD17O,1.700000X2.000000*%
G04 APERTURE END LIST*
D10*
%TO.C,J4*%
X156730000Y-83235000D03*
D11*
X156730000Y-80695000D03*
%TD*%
%TO.C,J11*%
X140257000Y-70125000D03*
D10*
X137717000Y-70125000D03*
X135177000Y-70125000D03*
%TD*%
D12*
%TO.C,J2*%
X188205000Y-92945000D03*
X188205000Y-90945000D03*
X188205000Y-88945000D03*
X188205000Y-86945000D03*
X188205000Y-84945000D03*
X188205000Y-82945000D03*
X188205000Y-80945000D03*
X188205000Y-78945000D03*
X188205000Y-76945000D03*
X188205000Y-74945000D03*
X188205000Y-72945000D03*
D13*
X188205000Y-70945000D03*
%TD*%
D11*
%TO.C,J10*%
X130605000Y-70125000D03*
D10*
X128065000Y-70125000D03*
X125525000Y-70125000D03*
%TD*%
D11*
%TO.C,J9*%
X120953000Y-70125000D03*
D10*
X118413000Y-70125000D03*
X115873000Y-70125000D03*
%TD*%
D11*
%TO.C,J8*%
X140257000Y-66315000D03*
D10*
X137717000Y-66315000D03*
X135177000Y-66315000D03*
%TD*%
D11*
%TO.C,J7*%
X130605000Y-66315000D03*
D10*
X128065000Y-66315000D03*
X125525000Y-66315000D03*
%TD*%
%TO.C,J6*%
X115873000Y-66315000D03*
X118413000Y-66315000D03*
D11*
X120953000Y-66315000D03*
%TD*%
%TO.C,J3*%
X161805000Y-65670000D03*
D10*
X164345000Y-65670000D03*
X166885000Y-65670000D03*
X169425000Y-65670000D03*
X171965000Y-65670000D03*
X174505000Y-65670000D03*
X177045000Y-65670000D03*
X179585000Y-65670000D03*
X182125000Y-65670000D03*
%TD*%
D12*
%TO.C,J1*%
X160955000Y-98195000D03*
X162955000Y-98195000D03*
X164955000Y-98195000D03*
X166955000Y-98195000D03*
X168955000Y-98195000D03*
X170955000Y-98195000D03*
X172955000Y-98195000D03*
X174955000Y-98195000D03*
X176955000Y-98195000D03*
X178955000Y-98195000D03*
X180955000Y-98195000D03*
D13*
X182955000Y-98195000D03*
%TD*%
D14*
%TO.C,J13*%
X114603000Y-95525000D03*
D15*
X117103000Y-95525000D03*
X119603000Y-95525000D03*
X122103000Y-95525000D03*
%TD*%
D11*
%TO.C,J15*%
X113333000Y-89547000D03*
D10*
X115873000Y-89547000D03*
X118413000Y-89547000D03*
X120953000Y-89547000D03*
X123493000Y-89547000D03*
X126033000Y-89547000D03*
X128573000Y-89547000D03*
X131113000Y-89547000D03*
X133653000Y-89547000D03*
X136193000Y-89547000D03*
X138733000Y-89547000D03*
X141273000Y-89547000D03*
X143813000Y-89547000D03*
X146353000Y-89547000D03*
X148893000Y-89547000D03*
%TD*%
D11*
%TO.C,J17*%
X113333000Y-85974600D03*
D10*
X115873000Y-85974600D03*
X118413000Y-85974600D03*
X120953000Y-85974600D03*
X123493000Y-85974600D03*
X126033000Y-85974600D03*
X128573000Y-85974600D03*
X131113000Y-85974600D03*
X133653000Y-85974600D03*
X136193000Y-85974600D03*
X138733000Y-85974600D03*
X141273000Y-85974600D03*
X143813000Y-85974600D03*
X146353000Y-85974600D03*
X148893000Y-85974600D03*
%TD*%
D15*
%TO.C,J12*%
X135819000Y-95525000D03*
X133319000Y-95525000D03*
X130819000Y-95525000D03*
D14*
X128319000Y-95525000D03*
%TD*%
D11*
%TO.C,J16*%
X113333000Y-74307000D03*
D10*
X115873000Y-74307000D03*
X118413000Y-74307000D03*
X120953000Y-74307000D03*
X123493000Y-74307000D03*
X126033000Y-74307000D03*
X128573000Y-74307000D03*
X131113000Y-74307000D03*
X133653000Y-74307000D03*
X136193000Y-74307000D03*
X138733000Y-74307000D03*
X141273000Y-74307000D03*
X143813000Y-74307000D03*
X146353000Y-74307000D03*
X148893000Y-74307000D03*
%TD*%
D11*
%TO.C,J18*%
X113333000Y-77872000D03*
D10*
X115873000Y-77872000D03*
X118413000Y-77872000D03*
X120953000Y-77872000D03*
X123493000Y-77872000D03*
X126033000Y-77872000D03*
X128573000Y-77872000D03*
X131113000Y-77872000D03*
X133653000Y-77872000D03*
X136193000Y-77872000D03*
X138733000Y-77872000D03*
X141273000Y-77872000D03*
X143813000Y-77872000D03*
X146353000Y-77872000D03*
X148893000Y-77872000D03*
%TD*%
D15*
%TO.C,J5*%
X149535000Y-95525000D03*
X147035000Y-95525000D03*
X144535000Y-95525000D03*
D14*
X142035000Y-95525000D03*
%TD*%
D16*
%TO.C,J14*%
X149401000Y-68445000D03*
D17*
X146901000Y-68445000D03*
%TD*%
M02*
