%TF.GenerationSoftware,KiCad,Pcbnew,7.0.10*%
%TF.CreationDate,2024-02-12T04:38:07-05:00*%
%TF.ProjectId,SanBan,53616e42-616e-42e6-9b69-6361645f7063,rev?*%
%TF.SameCoordinates,Original*%
%TF.FileFunction,Legend,Bot*%
%TF.FilePolarity,Positive*%
%FSLAX46Y46*%
G04 Gerber Fmt 4.6, Leading zero omitted, Abs format (unit mm)*
G04 Created by KiCad (PCBNEW 7.0.10) date 2024-02-12 04:38:07*
%MOMM*%
%LPD*%
G01*
G04 APERTURE LIST*
%ADD10C,0.150000*%
%ADD11C,0.120000*%
G04 APERTURE END LIST*
D10*
X159605220Y-83202866D02*
X158843316Y-83202866D01*
X159224268Y-83583819D02*
X159224268Y-82821914D01*
X159605220Y-80662866D02*
X158843316Y-80662866D01*
X157874887Y-78234009D02*
X157732030Y-78281628D01*
X157732030Y-78281628D02*
X157684411Y-78329247D01*
X157684411Y-78329247D02*
X157636792Y-78424485D01*
X157636792Y-78424485D02*
X157636792Y-78567342D01*
X157636792Y-78567342D02*
X157684411Y-78662580D01*
X157684411Y-78662580D02*
X157732030Y-78710200D01*
X157732030Y-78710200D02*
X157827268Y-78757819D01*
X157827268Y-78757819D02*
X158208220Y-78757819D01*
X158208220Y-78757819D02*
X158208220Y-77757819D01*
X158208220Y-77757819D02*
X157874887Y-77757819D01*
X157874887Y-77757819D02*
X157779649Y-77805438D01*
X157779649Y-77805438D02*
X157732030Y-77853057D01*
X157732030Y-77853057D02*
X157684411Y-77948295D01*
X157684411Y-77948295D02*
X157684411Y-78043533D01*
X157684411Y-78043533D02*
X157732030Y-78138771D01*
X157732030Y-78138771D02*
X157779649Y-78186390D01*
X157779649Y-78186390D02*
X157874887Y-78234009D01*
X157874887Y-78234009D02*
X158208220Y-78234009D01*
X157255839Y-78472104D02*
X156779649Y-78472104D01*
X157351077Y-78757819D02*
X157017744Y-77757819D01*
X157017744Y-77757819D02*
X156684411Y-78757819D01*
X156493934Y-77757819D02*
X155922506Y-77757819D01*
X156208220Y-78757819D02*
X156208220Y-77757819D01*
X155732029Y-77757819D02*
X155160601Y-77757819D01*
X155446315Y-78757819D02*
X155446315Y-77757819D01*
X154827267Y-78234009D02*
X154493934Y-78234009D01*
X154351077Y-78757819D02*
X154827267Y-78757819D01*
X154827267Y-78757819D02*
X154827267Y-77757819D01*
X154827267Y-77757819D02*
X154351077Y-77757819D01*
X153351077Y-78757819D02*
X153684410Y-78281628D01*
X153922505Y-78757819D02*
X153922505Y-77757819D01*
X153922505Y-77757819D02*
X153541553Y-77757819D01*
X153541553Y-77757819D02*
X153446315Y-77805438D01*
X153446315Y-77805438D02*
X153398696Y-77853057D01*
X153398696Y-77853057D02*
X153351077Y-77948295D01*
X153351077Y-77948295D02*
X153351077Y-78091152D01*
X153351077Y-78091152D02*
X153398696Y-78186390D01*
X153398696Y-78186390D02*
X153446315Y-78234009D01*
X153446315Y-78234009D02*
X153541553Y-78281628D01*
X153541553Y-78281628D02*
X153922505Y-78281628D01*
X152732029Y-78281628D02*
X152732029Y-78757819D01*
X153065362Y-77757819D02*
X152732029Y-78281628D01*
X152732029Y-78281628D02*
X152398696Y-77757819D01*
D11*
%TO.C,J4*%
X155687071Y-82855000D02*
X155290000Y-82855000D01*
X146630000Y-82855000D02*
X146630000Y-83615000D01*
X155620000Y-80315000D02*
X155290000Y-80315000D01*
X155687071Y-83615000D02*
X155290000Y-83615000D01*
X152630000Y-82855000D02*
X146630000Y-82855000D01*
X152630000Y-84565000D02*
X152630000Y-79365000D01*
X155620000Y-81075000D02*
X155290000Y-81075000D01*
X155290000Y-84565000D02*
X152630000Y-84565000D01*
X152630000Y-80735000D02*
X146630000Y-80735000D01*
X155290000Y-81965000D02*
X152630000Y-81965000D01*
X158000000Y-80695000D02*
X158000000Y-79425000D01*
X152630000Y-80375000D02*
X146630000Y-80375000D01*
X152630000Y-80975000D02*
X146630000Y-80975000D01*
X146630000Y-80315000D02*
X146630000Y-81075000D01*
X152630000Y-80495000D02*
X146630000Y-80495000D01*
X155290000Y-79365000D02*
X155290000Y-84565000D01*
X152630000Y-79365000D02*
X155290000Y-79365000D01*
X146630000Y-81075000D02*
X152630000Y-81075000D01*
X152630000Y-80315000D02*
X146630000Y-80315000D01*
X152630000Y-80615000D02*
X146630000Y-80615000D01*
X158000000Y-79425000D02*
X156730000Y-79425000D01*
X146630000Y-83615000D02*
X152630000Y-83615000D01*
X152630000Y-80855000D02*
X146630000Y-80855000D01*
%TD*%
M02*
