M48
; DRILL file {KiCad 7.0.10} date Mon Feb 12 04:40:32 2024
; FORMAT={-:-/ absolute / inch / decimal}
; #@! TF.CreationDate,2024-02-12T04:40:32-05:00
; #@! TF.GenerationSoftware,Kicad,Pcbnew,7.0.10
; #@! TF.FileFunction,Plated,1,2,PTH
FMAT,2
INCH
; #@! TA.AperFunction,Plated,PTH,ViaDrill
T1C0.0157
; #@! TA.AperFunction,Plated,PTH,ComponentDrill
T2C0.0315
; #@! TA.AperFunction,Plated,PTH,ComponentDrill
T3C0.0374
; #@! TA.AperFunction,Plated,PTH,ComponentDrill
T4C0.0394
%
G90
G05
T1
X6.0419Y-3.7158
X6.5919Y-3.1208
X6.5919Y-3.1958
X6.6169Y-3.1608
X6.6419Y-3.1208
X6.6419Y-3.1958
X6.6669Y-3.1608
X6.6919Y-3.1208
X6.6919Y-3.1958
X6.7797Y-3.1573
X6.7797Y-3.3738
X6.9219Y-2.8308
X6.9219Y-2.9208
X7.0719Y-2.8308
X7.0719Y-2.9208
X7.2522Y-3.2459
X7.2915Y-2.9112
X7.3014Y-3.2459
T2
X6.3368Y-3.8659
X6.4156Y-3.8659
X6.4943Y-3.8659
X6.573Y-3.8659
X6.6518Y-3.8659
X6.7305Y-3.8659
X6.8093Y-3.8659
X6.888Y-3.8659
X6.9667Y-3.8659
X7.0455Y-3.8659
X7.1242Y-3.8659
X7.203Y-3.8659
X7.4096Y-2.7931
X7.4096Y-2.8719
X7.4096Y-2.9506
X7.4096Y-3.0293
X7.4096Y-3.1081
X7.4096Y-3.1868
X7.4096Y-3.2656
X7.4096Y-3.3443
X7.4096Y-3.423
X7.4096Y-3.5018
X7.4096Y-3.5805
X7.4096Y-3.6593
T3
X4.5119Y-3.7608
X4.6104Y-3.7608
X4.7088Y-3.7608
X4.8072Y-3.7608
X5.0519Y-3.7608
X5.1504Y-3.7608
X5.2488Y-3.7608
X5.3472Y-3.7608
X5.5919Y-3.7608
X5.6904Y-3.7608
X5.7888Y-3.7608
X5.8872Y-3.7608
T4
X4.4619Y-2.9255
X4.4619Y-3.0658
X4.4619Y-3.3848
X4.4619Y-3.5255
X4.5619Y-2.6108
X4.5619Y-2.7608
X4.5619Y-2.9255
X4.5619Y-3.0658
X4.5619Y-3.3848
X4.5619Y-3.5255
X4.6619Y-2.6108
X4.6619Y-2.7608
X4.6619Y-2.9255
X4.6619Y-3.0658
X4.6619Y-3.3848
X4.6619Y-3.5255
X4.7619Y-2.6108
X4.7619Y-2.7608
X4.7619Y-2.9255
X4.7619Y-3.0658
X4.7619Y-3.3848
X4.7619Y-3.5255
X4.8619Y-2.9255
X4.8619Y-3.0658
X4.8619Y-3.3848
X4.8619Y-3.5255
X4.9419Y-2.6108
X4.9419Y-2.7608
X4.9619Y-2.9255
X4.9619Y-3.0658
X4.9619Y-3.3848
X4.9619Y-3.5255
X5.0419Y-2.6108
X5.0419Y-2.7608
X5.0619Y-2.9255
X5.0619Y-3.0658
X5.0619Y-3.3848
X5.0619Y-3.5255
X5.1419Y-2.6108
X5.1419Y-2.7608
X5.1619Y-2.9255
X5.1619Y-3.0658
X5.1619Y-3.3848
X5.1619Y-3.5255
X5.2619Y-2.9255
X5.2619Y-3.0658
X5.2619Y-3.3848
X5.2619Y-3.5255
X5.3219Y-2.6108
X5.3219Y-2.7608
X5.3619Y-2.9255
X5.3619Y-3.0658
X5.3619Y-3.3848
X5.3619Y-3.5255
X5.4219Y-2.6108
X5.4219Y-2.7608
X5.4619Y-2.9255
X5.4619Y-3.0658
X5.4619Y-3.3848
X5.4619Y-3.5255
X5.5219Y-2.6108
X5.5219Y-2.7608
X5.5619Y-2.9255
X5.5619Y-3.0658
X5.5619Y-3.3848
X5.5619Y-3.5255
X5.6619Y-2.9255
X5.6619Y-3.0658
X5.6619Y-3.3848
X5.6619Y-3.5255
X5.7619Y-2.9255
X5.7619Y-3.0658
X5.7619Y-3.3848
X5.7619Y-3.5255
X5.7835Y-2.6947
X5.8619Y-2.9255
X5.8619Y-3.0658
X5.8619Y-3.3848
X5.8619Y-3.5255
X5.8819Y-2.6947
X6.1705Y-3.177
X6.1705Y-3.277
X6.3703Y-2.5854
X6.4703Y-2.5854
X6.5703Y-2.5854
X6.6703Y-2.5854
X6.7703Y-2.5854
X6.8703Y-2.5854
X6.9703Y-2.5854
X7.0703Y-2.5854
X7.1703Y-2.5854
M30
